<svg xmlns="http://www.w3.org/2000/svg" width="38.456" height="38.456" viewBox="0 0 38.456 38.456">
  <g id="Group_17" data-name="Group 17" transform="translate(0)" opacity="0.9">
    <g id="store-2-fill" transform="translate(0)">
      <path id="Path_25" data-name="Path 25" d="M0,0H38.456V38.456H0Z" fill="none"/>
      <path id="Path_26" data-name="Path 26" d="M34.649,30.842v3.2H2.6v-3.2H4.2V20.013a7.214,7.214,0,0,1-2.19-9.686L6.36,2.8A1.6,1.6,0,0,1,7.747,2H29.505a1.6,1.6,0,0,1,1.388.8l4.33,7.5a7.2,7.2,0,0,1-2.176,9.71V30.842ZM8.674,5.2l-3.9,6.751a4.006,4.006,0,0,0,7.156,3.551,1.6,1.6,0,0,1,2.974,0,4.006,4.006,0,0,0,7.441,0,1.6,1.6,0,0,1,2.974,0,4.006,4.006,0,1,0,7.142-3.576L28.576,5.2H8.675Z" transform="translate(0.602 1.205)" fill="#484545"/>
    </g>
    <g id="Ellipse_1" data-name="Ellipse 1" transform="translate(10.069 11.543)" fill="#fff" stroke="#484545" stroke-width="3">
      <ellipse cx="9" cy="9.5" rx="9" ry="9.5" stroke="none"/>
      <ellipse cx="9" cy="9.5" rx="10.5" ry="11" fill="none"/>
    </g>
    <g id="surface1" transform="translate(16.152 13.844)">
      <path id="Path_27" data-name="Path 27" d="M11.4,14.447a5.056,5.056,0,0,1-2.53-.724L8.43,15.271a5.524,5.524,0,0,0,2.662.721v1.451h1.3v-1.55a2.984,2.984,0,0,0,2.74-2.926c0-1.466-.808-2.352-2.629-3.043-1.379-.559-1.962-.937-1.962-1.613,0-.559.406-1.151,1.541-1.151a4.8,4.8,0,0,1,2.208.559L14.727,6.2a5.179,5.179,0,0,0-2.241-.541V4.188H11.155V5.747A2.847,2.847,0,0,0,8.541,8.541c0,1.529,1.106,2.319,2.809,2.944,1.2.445,1.77.919,1.77,1.661C13.119,13.937,12.419,14.447,11.4,14.447Z" transform="translate(-8.43 -4.188)" fill="#484545"/>
    </g>
  </g>
</svg>
