<svg xmlns="http://www.w3.org/2000/svg" width="26.919" height="40.379" viewBox="0 0 26.919 40.379">
  <g id="doc" transform="translate(0)" opacity="0.9">
    <g id="Group_20" data-name="Group 20" transform="translate(18.843 0.897)">
      <g id="Group_19" data-name="Group 19">
        <path id="Path_34" data-name="Path 34" d="M291.84,10.24v3.589a3.6,3.6,0,0,0,3.589,3.589h3.589Z" transform="translate(-291.84 -10.24)" fill="#484545"/>
      </g>
    </g>
    <g id="Group_22" data-name="Group 22" transform="translate(11.979 29.97)">
      <g id="Group_21" data-name="Group 21" transform="translate(0)">
        <path id="Path_35" data-name="Path 35" d="M216.286,342.913a1.632,1.632,0,0,0-.538-.673,1.512,1.512,0,0,0-.763-.224,1.242,1.242,0,0,0-.583.135,1.758,1.758,0,0,0-.449.359,2.054,2.054,0,0,0-.314.628,2.893,2.893,0,0,0-.135.9,2.983,2.983,0,0,0,.135.942,2.346,2.346,0,0,0,.314.673.848.848,0,0,0,.449.359,1.35,1.35,0,0,0,1.3-.09,1.386,1.386,0,0,0,.538-.673,3.07,3.07,0,0,0,.224-1.211A2.8,2.8,0,0,0,216.286,342.913Z" transform="translate(-213.504 -342.016)" fill="#484545"/>
      </g>
    </g>
    <g id="Group_24" data-name="Group 24" transform="translate(0)">
      <g id="Group_23" data-name="Group 23">
        <path id="Path_36" data-name="Path 36" d="M99.233,9.87a5.4,5.4,0,0,1-5.384-5.384V0H81.287A4.5,4.5,0,0,0,76.8,4.487V35.892a4.5,4.5,0,0,0,4.487,4.487H99.233a4.5,4.5,0,0,0,4.487-4.487V9.87ZM81.287,3.589H90.26a.9.9,0,0,1,0,1.795H81.287a.9.9,0,0,1,0-1.795Zm0,8.973H99.233a.9.9,0,1,1,0,1.795H81.287a.9.9,0,0,1,0-1.795Zm0,4.487H99.233a.9.9,0,1,1,0,1.795H81.287a.9.9,0,0,1,0-1.795Zm0,4.487H99.233a.9.9,0,1,1,0,1.795H81.287a.9.9,0,0,1,0-1.795Zm4.531,11.575a3.329,3.329,0,0,1-.314.942,2.948,2.948,0,0,1-.538.763,1.707,1.707,0,0,1-.583.4,3.949,3.949,0,0,1-.673.224,4.105,4.105,0,0,1-.763.045h-1.57a1.3,1.3,0,0,1-.628-.135.648.648,0,0,1-.314-.449,2.024,2.024,0,0,1-.045-.583V29.611a1.188,1.188,0,0,1,.224-.763.947.947,0,0,1,.718-.269H82.9a4.039,4.039,0,0,1,1.122.135,2.53,2.53,0,0,1,.9.494,3.571,3.571,0,0,1,.987,2.782A2.92,2.92,0,0,1,85.818,33.111Zm7.4.359a3.039,3.039,0,0,1-.628,1.122,3.244,3.244,0,0,1-.987.763,3.5,3.5,0,0,1-2.692,0,2.95,2.95,0,0,1-1.032-.763,3.343,3.343,0,0,1-.583-1.122,4.733,4.733,0,0,1-.179-1.391,5.056,5.056,0,0,1,.224-1.436,3.039,3.039,0,0,1,.628-1.122,3.1,3.1,0,0,1,.987-.718,3.068,3.068,0,0,1,1.3-.269,2.93,2.93,0,0,1,1.7.449,3.044,3.044,0,0,1,1.122,1.256,4.8,4.8,0,0,1,.359,1.839A5,5,0,0,1,93.221,33.469Zm7.044.494a2.026,2.026,0,0,1-.494.763,2.482,2.482,0,0,1-.852.628,3.426,3.426,0,0,1-1.211.224,5.523,5.523,0,0,1-.9-.09,3.881,3.881,0,0,1-.763-.314,2.56,2.56,0,0,1-.628-.583,3.874,3.874,0,0,1-.449-.718,2.706,2.706,0,0,1-.269-.852,6.693,6.693,0,0,1-.09-.942,5.123,5.123,0,0,1,.224-1.481,3.038,3.038,0,0,1,.628-1.122,3.1,3.1,0,0,1,.987-.718,3.087,3.087,0,0,1,2.6.135,2.483,2.483,0,0,1,.942.852,1.9,1.9,0,0,1,.359.987.743.743,0,0,1-.224.538.64.64,0,0,1-.538.269.559.559,0,0,1-.494-.179c-.09-.09-.179-.269-.314-.449a1.809,1.809,0,0,0-.494-.628,1.081,1.081,0,0,0-.673-.179,1.2,1.2,0,0,0-1.032.538,2.678,2.678,0,0,0-.4,1.615,3.038,3.038,0,0,0,.179,1.167,1.41,1.41,0,0,0,.494.628,1.356,1.356,0,0,0,.718.224,1.39,1.39,0,0,0,.763-.224,1.321,1.321,0,0,0,.449-.718,1.659,1.659,0,0,1,.224-.494.574.574,0,0,1,.538-.269.743.743,0,0,1,.538.224.828.828,0,0,1,.224.538C100.444,33.469,100.354,33.694,100.265,33.963Z" transform="translate(-76.8)" fill="#484545"/>
      </g>
    </g>
    <g id="Group_26" data-name="Group 26" transform="translate(5.204 30.06)">
      <g id="Group_25" data-name="Group 25" transform="translate(0)">
        <path id="Path_37" data-name="Path 37" d="M138.211,343.668a.955.955,0,0,0-.538-.493,2.52,2.52,0,0,0-.9-.135h-.583v3.9h1.167a1.141,1.141,0,0,0,.314-.09.982.982,0,0,0,.224-.135,2.265,2.265,0,0,0,.538-1.75A3.078,3.078,0,0,0,138.211,343.668Z" transform="translate(-136.192 -343.04)" fill="#484545"/>
      </g>
    </g>
  </g>
</svg>
