<svg id="barcode-box-line_1_" data-name="barcode-box-line (1)" xmlns="http://www.w3.org/2000/svg" width="18.671" height="18.671" viewBox="0 0 18.671 18.671">
  <path id="Path_108" data-name="Path 108" d="M0,0H18.671V18.671H0Z" fill="none"/>
  <path id="Path_109" data-name="Path 109" d="M3.556,4.556V15.447H16V4.556ZM2.778,3h14a.778.778,0,0,1,.778.778V16.225a.778.778,0,0,1-.778.778h-14A.778.778,0,0,1,2,16.225V3.778A.778.778,0,0,1,2.778,3ZM5.112,6.112H7.446v7.78H5.112Zm3.112,0H9.78v7.78H8.224Zm2.334,0h.778v7.78h-.778Zm1.556,0h2.334v7.78H12.114Z" transform="translate(-0.444 -0.666)" fill="#302c2c"/>
</svg>
