<?xml version="1.0" encoding="utf-8"?>
<!-- Svg Vector Icons : http://www.onlinewebfonts.com/icon -->
<!DOCTYPE svg PUBLIC "-//W3C//DTD SVG 1.1//EN" "http://www.w3.org/Graphics/SVG/1.1/DTD/svg11.dtd">
<svg version="1.1" xmlns="http://www.w3.org/2000/svg" xmlns:xlink="http://www.w3.org/1999/xlink" x="0px" y="0px" viewBox="0 0 1000 1000" enable-background="new 0 0 1000 1000" xml:space="preserve">
<metadata> Svg Vector Icons : http://www.onlinewebfonts.com/icon </metadata>
<g><g transform="translate(0.000000,511.000000) scale(0.100000,-0.100000)"><path d="M158,3672l-58-58v-714c0-772,4-798,110-846c94-44,168-30,242,44l68,68v572v572h572h572l68,68c74,74,88,148,44,242c-48,106-74,110-846,110H216L158,3672z"/><path d="M8288,3694c-110-88-118-218-20-316l68-68h572h572v-572v-572l68-68c48-48,86-68,132-68c80,0,170,52,198,114c14,32,22,290,22,758v712l-58,58l-58,58h-728C8398,3730,8326,3726,8288,3694z"/><path d="M1438,2392l-58-58V110v-2224l58-58c96-94,260-74,328,42c32,52,34,238,34,2238c0,1648-6,2192-24,2232C1722,2460,1536,2488,1438,2392z"/><path d="M2296,2392l-66-58l-6-1738c-2-954,0-1764,6-1798c14-78,94-162,170-178c82-18,190,38,228,120c30,60,32,250,28,1830l-6,1764l-66,58C2494,2472,2386,2472,2296,2392z"/><path d="M3182,2422c-104-58-100,6-102-1878c0-1952-8-1848,134-1906c86-38,186-10,246,66c40,50,40,78,40,1840v1790l-58,58C3376,2456,3268,2470,3182,2422z"/><path d="M3998,2392l-58-58V544v-1790l50-60c64-76,144-96,236-56c142,58,134-46,134,1900c0,1314-6,1764-24,1802C4282,2460,4096,2488,3998,2392z"/><path d="M4856,2392l-66-58V110v-2224l66-58c116-104,276-68,336,74c42,100,42,4316,0,4416C5132,2460,4972,2496,4856,2392z"/><path d="M5728,2414c-24-18-54-54-66-78c-16-30-22-544-22-1796c0-1946-8-1844,134-1902c86-38,186-10,246,66c40,50,40,78,40,1840v1790l-58,58c-48,46-76,58-146,58C5804,2450,5752,2436,5728,2414z"/><path d="M6558,2392l-58-58V544c0-1762,0-1790,40-1840c60-76,160-104,246-66c142,58,134-44,134,1900c0,1314-6,1764-24,1802C6842,2460,6656,2488,6558,2392z"/><path d="M7416,2392l-66-58l-6-1738c-2-954,0-1764,6-1798c14-78,94-162,170-178c82-18,190,38,228,120c30,60,32,252,28,1830l-6,1764l-66,58C7614,2472,7506,2472,7416,2392z"/><path d="M8288,2414c-24-18-54-54-66-78c-16-32-22-658-22-2226c0-2370-6-2264,110-2316c94-42,188-30,252,34l58,58V110v2224l-58,58c-48,46-76,58-146,58C8364,2450,8312,2436,8288,2414z"/><path d="M210-1834c-110-60-110-46-110-832v-728l58-58l58-58h712c468,0,726,8,758,22c62,28,114,118,114,198c0,46-20,84-68,132l-68,68h-572H520v572v572l-68,68C380-1806,290-1790,210-1834z"/><path d="M2328-1848c-72-44-116-150-96-230c6-28,40-74,72-102c168-140,412,36,328,236c-30,76-118,134-196,134C2410-1810,2362-1828,2328-1848z"/><path d="M3208-1830c-64-26-128-118-128-184c0-192,228-292,362-158c86,86,82,202-10,294C3362-1808,3296-1794,3208-1830z"/><path d="M4050-1832c-74-42-110-106-110-194c0-122,82-204,200-204c114,0,220,100,220,208C4360-1878,4170-1762,4050-1832z"/><path d="M5768-1830c-64-26-128-118-128-184c0-192,228-292,362-158c86,86,82,202-10,294C5922-1808,5856-1794,5768-1830z"/><path d="M6640-1824c-16-6-54-34-84-62c-80-74-80-204,2-286c86-86,202-82,294,10c88,88,92,184,14,272C6810-1828,6704-1798,6640-1824z"/><path d="M7448-1848c-84-50-122-160-88-244c78-184,322-184,400,0c50,124-62,282-200,282C7532-1810,7482-1828,7448-1848z"/><path d="M9548-1878l-68-68v-572v-572h-572h-572l-68-68c-76-76-88-154-40-250c52-98,80-102,844-102h712l58,58l58,58v712c0,764-4,792-102,844C9702-1790,9624-1802,9548-1878z"/></g></g>
</svg>