<svg height="512" viewBox="0 0 64 64" width="512" xmlns="http://www.w3.org/2000/svg"><g id="Search"><path d="m36 21a15 15 0 1 0 -15 15 15.017 15.017 0 0 0 15-15zm-28 0a13 13 0 1 1 13 13 13.015 13.015 0 0 1 -13-13z"/><path d="m13.222 13.222a11.012 11.012 0 0 0 0 15.556l1.414-1.414a9.01 9.01 0 0 1 0-12.728z"/><path d="m28.778 28.778a11.012 11.012 0 0 0 0-15.556l-1.414 1.414a9.01 9.01 0 0 1 0 12.728z"/><path d="m60.021 50.122-6.021-6.022v-37.1a1 1 0 0 0 -1-1h-20.381a18.976 18.976 0 1 0 -22.619 30.463v20.537a1 1 0 0 0 1 1h37.1l2.021 2.021a7 7 0 0 0 9.9-9.9zm-8.021-8.022-10.364-10.363a1 1 0 0 0 -1.414 0l-.706.705-2.032-2.032a18.88 18.88 0 0 0 -2.666-22.41h17.182zm-18.144-4-1.732-1.73a19.131 19.131 0 0 0 4.246-4.246l1.73 1.732zm-29.856-17.1a17 17 0 1 1 17 17 17.019 17.019 0 0 1 -17-17zm8 35v-18.273a18.9 18.9 0 0 0 18.41-.243l2.032 2.032-.705.706a1 1 0 0 0 0 1.414l14.363 14.364zm46.606 2.606a5 5 0 0 1 -7.07 0l-17.678-17.677 7.071-7.071 17.677 17.678a5 5 0 0 1 0 7.07z"/><path d="m47 36.172h2v18h-2z" transform="matrix(.707 -.707 .707 .707 -17.882 47.17)"/><path d="m55.485 52.657h2v2h-2z" transform="matrix(.707 -.707 .707 .707 -21.397 55.657)"/><path d="m22 30v-2.142a3.992 3.992 0 0 0 -1-7.858 2 2 0 1 1 2-2h2a4 4 0 0 0 -3-3.858v-2.142h-2v2.142a3.992 3.992 0 0 0 1 7.858 2 2 0 1 1 -2 2h-2a4 4 0 0 0 3 3.858v2.142z"/><path d="m46 24a2 2 0 0 1 -2-2h-2a4 4 0 0 0 3 3.858v2.142h2v-2.142a3.992 3.992 0 0 0 -1-7.858 2 2 0 1 1 2-2h2a4 4 0 0 0 -3-3.858v-2.142h-2v2.142a3.992 3.992 0 0 0 1 7.858 2 2 0 0 1 0 4z"/><path d="m14 44h4v2h-4z"/><path d="m20 44h10v2h-10z"/><path d="m14 48h4v2h-4z"/><path d="m20 48h10v2h-10z"/><path d="m14 52h4v2h-4z"/><path d="m20 52h10v2h-10z"/></g></svg>