<svg height="512" viewBox="0 0 512 512" width="512" xmlns="http://www.w3.org/2000/svg"><g id="Line_stroke_cut_Ex" data-name="Line stroke cut Ex"><g><path d="m56 32h312v136h16v-144a8 8 0 0 0 -8-8h-328a8 8 0 0 0 -8 8v128h16z"/><path d="m368 480h-312v-312h-16v320a8 8 0 0 0 8 8h328a8 8 0 0 0 8-8v-48h-16z"/><path d="m462.807 417.553-37.833-42.6-13.441-38.567a127.68 127.68 0 0 0 8.253-65.444l-15.859 2.122a111.554 111.554 0 1 1 -3.041-14.935l15.425-4.252a127.861 127.861 0 1 0 -73.537 152.094l36.552 13.837 37.721 42.477c.1.118.214.234.326.346a32 32 0 0 0 45.434-45.075zm-11.493 33.76a16.017 16.017 0 0 1 -22.476.151l-38.856-43.756a7.994 7.994 0 0 0 -3.15-2.17l-25.153-9.521a130.112 130.112 0 0 0 39.75-40.009l8.958 25.7a8 8 0 0 0 1.572 2.68l39.03 43.951q.158.176.324.344a16.017 16.017 0 0 1 .001 22.63z"/><path d="m222.863 217.94a99.079 99.079 0 1 0 140.117 0 99.192 99.192 0 0 0 -140.117 0zm128.8 128.805a83.04 83.04 0 1 1 0-117.49 82.8 82.8 0 0 1 .004 117.49z"/><path d="m288.663 338.9a51.1 51.1 0 0 1 -31.863-14.783l-11.31 11.315a67.13 67.13 0 0 0 41.847 19.415q2.809.233 5.6.232a66.97 66.97 0 0 0 47.416-19.647l-11.313-11.315a51.024 51.024 0 0 1 -40.377 14.783z"/><path d="m337.479 313 13.949 7.838a66.736 66.736 0 0 0 6.957-18.177l-15.616-3.484a50.7 50.7 0 0 1 -5.29 13.823z"/><path d="m116 152h-36v16h16v16h16v-16h4a28 28 0 0 0 0-56h-8a12 12 0 0 1 0-24h36v-16h-16v-16h-16v16h-4a28 28 0 0 0 0 56h8a12 12 0 0 1 0 24z"/><path d="m176 72h104v16h-104z"/><path d="m296 72h48v16h-48z"/><path d="m240 120h104v16h-104z"/><path d="m176 120h48v16h-48z"/><path d="m80 216h80v16h-80z"/><path d="m80 264h72v16h-72z"/><path d="m80 312h72v16h-72z"/><path d="m80 360h88v16h-88z"/><path d="m80 408h136v16h-136z"/></g></g></svg>