<svg xmlns="http://www.w3.org/2000/svg" width="30" height="30" viewBox="0 0 30 30">
  <g id="surface1" transform="translate(-2.961 -2.961)" opacity="0.9">
    <path id="Path_9" data-name="Path 9" d="M17.959,2.961a15,15,0,1,0,15,15A15,15,0,0,0,17.959,2.961Zm1.771,15s3.924,3.929,4.117,4.117a1.253,1.253,0,0,1-1.771,1.771c-.188-.193-4.117-4.117-4.117-4.117s-3.924,3.924-4.112,4.117a1.253,1.253,0,0,1-1.771-1.771c.193-.188,4.117-4.117,4.117-4.117s-3.924-3.924-4.117-4.112a1.253,1.253,0,0,1,1.771-1.771c.188.193,4.112,4.117,4.112,4.117s3.929-3.924,4.117-4.117a1.253,1.253,0,0,1,1.771,1.771C23.654,14.035,19.73,17.959,19.73,17.959Z" fill="#be2c2c"/>
  </g>
</svg>
