<svg id="Layer_5" enable-background="new 0 0 64 64" height="512" viewBox="0 0 64 64" width="512" xmlns="http://www.w3.org/2000/svg"><g><path d="m63 55v-2h-7v-3.618l-8.553 4.276c-.892.446-1.447 1.344-1.447 2.342s.555 1.896 1.447 2.342l8.553 4.276v-3.618h7v-2h-9v2.382l-5.658-2.829c-.211-.106-.342-.317-.342-.553s.131-.447.342-.553l5.658-2.829v2.382z"/><path d="m16.553 53.658-8.553-4.276v3.618h-7v2h9v-2.382l5.658 2.829c.211.106.342.317.342.553s-.131.447-.342.553l-5.658 2.829v-2.382h-9v2h7v3.618l8.553-4.276c.892-.446 1.447-1.344 1.447-2.342s-.555-1.896-1.447-2.342z"/><path d="m47.037 48.732 6.695-6.695-1.29-2.469c1.342-2.175 2.317-4.525 2.905-7.001l2.653-.833v-9.469l-2.652-.833c-.588-2.476-1.563-4.826-2.905-7.001l1.29-2.469-6.695-6.695-2.469 1.289c-2.176-1.342-4.526-2.317-7.002-2.904l-.833-2.652h-9.469l-.832 2.653c-2.476.587-4.826 1.563-7.002 2.904l-2.469-1.289-6.695 6.695 1.29 2.469c-1.342 2.175-2.317 4.525-2.905 7.001l-2.652.833v9.469l2.652.833c.588 2.476 1.563 4.826 2.905 7.001l-1.29 2.469 6.695 6.695 2.469-1.289c2.008 1.238 4.169 2.149 6.436 2.746-3.56 2.011-5.867 5.806-5.867 10.056v2.754h24v-2.754c0-4.25-2.307-8.046-5.867-10.057 2.266-.598 4.428-1.508 6.436-2.746zm-33.037-21.732c0-2.674.594-5.287 1.721-7.674.073.13.137.264.22.389l1.059 1.588v.697c0 1.117.462 2.125 1.203 2.852-1.748.818-3.196 2.173-4.115 3.861-.055-.565-.088-1.136-.088-1.713zm3-10.395c0-1.988 1.617-3.605 3.605-3.605h.395v2.382l-2.342 1.171c-.623.312-1.1.817-1.379 1.422-.178-.433-.279-.895-.279-1.37zm31.059 3.11c.083-.125.148-.259.22-.389 1.127 2.387 1.721 5 1.721 7.674 0 .577-.033 1.148-.088 1.713-.919-1.689-2.367-3.044-4.115-3.861.741-.727 1.203-1.735 1.203-2.852v-.697zm-17.473 33.285-.879.878-.293-2.05zm1.414 1.414.146.146.734 6.44h-1.76l.734-6.44zm1.414-1.414 1.172-1.171-.293 2.05zm4.586-10c0 .551-.448 1-1 1v-2c.552 0 1 .449 1 1zm1.473-1.693c.341-.874.527-1.809.527-2.748 0-1.713-.58-3.29-1.544-4.559h10.099c-1.675 3.933-4.707 7.201-8.567 9.125.001-.042.012-.082.012-.125 0-.628-.195-1.21-.527-1.693zm-2.473-24.702c0-1.988 1.617-3.605 3.605-3.605h.395v2.382l-2.342 1.171c-.623.312-1.1.817-1.379 1.422-.178-.433-.279-.895-.279-1.37zm4 7.395c-1.103 0-2-.897-2-2v-2.764c0-.381.212-.724.553-.894l2.447-1.224 2.447 1.224c.341.17.553.513.553.894v2.764c0 1.103-.897 2-2 2zm1 2c3.519 0 6.432 2.613 6.92 6h-12.737c-.326-.187-.667-.348-1.021-.485.683-3.193 3.493-5.515 6.838-5.515zm4.721-8.026c-.279-.605-.756-1.11-1.379-1.422l-2.342-1.17v-2.382h.395c1.988 0 3.605 1.617 3.605 3.605 0 .475-.1.937-.279 1.369zm-11.721-1.369c0 1.11.325 2.185.941 3.109l1.059 1.589v.697c0 1.112.458 2.118 1.193 2.844-2.489 1.156-4.359 3.413-4.972 6.197-.257-.027-.517-.041-.781-.041h-.88c-.263 0-.523.014-.779.04-.614-2.782-2.486-5.04-4.974-6.196.735-.725 1.193-1.732 1.193-2.844v-.697l1.059-1.588c.616-.924.941-2 .941-3.109 0-2.979-2.338-5.415-5.274-5.589 2.537-1.32 5.344-2.017 8.274-2.017 2.929 0 5.737.697 8.273 2.017-2.936.173-5.273 2.61-5.273 5.588zm-7.183 15.395h-12.737c.488-3.387 3.401-6 6.92-6 3.343 0 6.155 2.323 6.839 5.515-.354.137-.696.298-1.022.485zm-6.817-8c-1.103 0-2-.897-2-2v-2.764c0-.381.212-.724.553-.894l2.447-1.224 2.447 1.224c.341.17.553.513.553.894v2.764c0 1.103-.897 2-2 2zm2.395-11c1.988 0 3.605 1.617 3.605 3.605 0 .474-.1.936-.279 1.369-.279-.605-.756-1.11-1.379-1.422l-2.342-1.17v-2.382zm2.149 21c-.964 1.269-1.544 2.846-1.544 4.559 0 .939.186 1.875.527 2.748-.332.483-.527 1.065-.527 1.693 0 .043.011.083.013.125-3.861-1.924-6.892-5.192-8.567-9.125zm1.456 10c-.552 0-1-.449-1-1s.448-1 1-1zm.1-4h-.1c-.267 0-.522.046-.769.112-.147-.504-.231-1.027-.231-1.553 0-3.065 2.494-5.559 5.56-5.559h.881c3.065 0 5.56 2.494 5.56 5.559 0 .526-.085 1.049-.231 1.553-.248-.066-.503-.112-.77-.112v-1h-2v1c-1.959 0-1.999-2.88-2-3.003l-1 .003h-1c0 1.729.836 5 4 5v3c0 1.103-.897 2-2 2h-2c-1.103 0-2-.897-2-2v-4.146c0-.762.424-1.448 1.105-1.789l.342-.171-.895-1.789-.342.171c-1.101.552-1.857 1.555-2.11 2.724zm3.9 9h2c.203 0 .398-.031.593-.06l.263.79-1.856 1.856-1.856-1.856.263-.79c.195.029.39.06.593.06zm-9 11.246c0-3.717 2.134-7.011 5.37-8.586l.923 6.462 1.29-1.29-.475 4.168h-7.108zm20 0v.754h-7.108l-.475-4.169 1.29 1.29.923-6.462c3.236 1.576 5.37 4.87 5.37 8.587zm1.976-14.795c-2.272 1.479-4.762 2.511-7.397 3.068l-.572.121-.174.555c-.017-.005-.034-.013-.051-.018l-.343-1.029c.575-.446 1.026-1.038 1.29-1.729 8.88-2.157 15.271-10.219 15.271-19.419 0-3.742-1.044-7.376-3.007-10.537-.071-2.808-2.213-5.107-4.954-5.423-3.492-2.638-7.644-4.04-12.039-4.04-4.396 0-8.548 1.402-12.038 4.04-2.742.315-4.883 2.615-4.955 5.423-1.963 3.161-3.007 6.795-3.007 10.537 0 9.2 6.391 17.263 15.273 19.42.264.691.715 1.283 1.29 1.729l-.343 1.029c-.017.005-.034.012-.051.018l-.174-.555-.572-.121c-2.636-.558-5.125-1.59-7.397-3.068l-.489-.319-2.197 1.147-4.617-4.619 1.147-2.196-.319-.49c-1.479-2.271-2.511-4.76-3.068-7.396l-.121-.572-2.362-.741v-6.531l2.359-.741.121-.572c.558-2.636 1.59-5.125 3.068-7.396l.319-.49-1.147-2.196 4.617-4.619 2.197 1.147.489-.319c2.272-1.479 4.762-2.511 7.397-3.068l.572-.121.742-2.36h6.531l.74 2.359.572.121c2.636.558 5.125 1.59 7.397 3.068l.489.319 2.197-1.147 4.617 4.619-1.147 2.196.319.49c1.479 2.271 2.511 4.76 3.068 7.396l.121.572 2.362.741v6.531l-2.359.741-.121.572c-.558 2.636-1.59 5.125-3.068 7.396l-.319.49 1.147 2.196-4.617 4.619-2.197-1.147z"/></g></svg>