<svg xmlns="http://www.w3.org/2000/svg" width="14.94" height="14.019" viewBox="0 0 14.94 14.019">
  <g id="coins" transform="translate(0.1 -15.9)">
    <g id="Group_80" data-name="Group 80" transform="translate(4.606 16)">
      <g id="Group_79" data-name="Group 79" transform="translate(0 0)">
        <path id="Path_140" data-name="Path 140" d="M165.067,16c-2.456,0-5.067.807-5.067,2.3v1.842a.461.461,0,1,0,.921,0v-.48a9.606,9.606,0,0,0,8.291,0v.48c0,.45-1.133,1.169-3.263,1.347a.461.461,0,0,0,.038.919l.04,0a7.382,7.382,0,0,0,3.186-.915v.493c0,.393-.835.959-2.383,1.233a.46.46,0,0,0,.079.914.4.4,0,0,0,.081-.007,6.153,6.153,0,0,0,2.223-.778v.481c0,.393-.835.959-2.383,1.233a.46.46,0,0,0,.079.914.4.4,0,0,0,.081-.007,6.171,6.171,0,0,0,2.223-.778v.481c0,.393-.835.959-2.383,1.233a.46.46,0,0,0,.079.914.4.4,0,0,0,.081-.007,6.171,6.171,0,0,0,2.223-.778v.481c0,.45-1.133,1.169-3.263,1.347a.461.461,0,0,0,.038.919l.04,0c2.044-.171,4.107-.937,4.107-2.264V18.3C170.134,16.807,167.523,16,165.067,16Zm0,3.685c-2.531,0-4.146-.819-4.146-1.382s1.615-1.382,4.146-1.382,4.146.819,4.146,1.382S167.6,19.685,165.067,19.685Z" transform="translate(-160 -16)" stroke="#000" stroke-width="0.2"/>
      </g>
    </g>
    <g id="Group_82" data-name="Group 82" transform="translate(0 21.527)">
      <g id="Group_81" data-name="Group 81">
        <path id="Path_141" data-name="Path 141" d="M5.067,208C2.611,208,0,208.807,0,210.3v3.685c0,1.5,2.611,2.3,5.067,2.3s5.067-.807,5.067-2.3V210.3C10.134,208.807,7.523,208,5.067,208Zm4.146,5.988c0,.563-1.615,1.382-4.146,1.382s-4.146-.819-4.146-1.382v-.48a8.358,8.358,0,0,0,4.146.941,8.358,8.358,0,0,0,4.146-.941Zm0-1.842c0,.563-1.615,1.382-4.146,1.382s-4.146-.819-4.146-1.382v-.48a8.358,8.358,0,0,0,4.146.941,8.358,8.358,0,0,0,4.146-.941Zm-4.146-.461c-2.531,0-4.146-.819-4.146-1.382s1.615-1.382,4.146-1.382,4.146.819,4.146,1.382S7.6,211.685,5.067,211.685Z" transform="translate(0 -208)" stroke="#000" stroke-width="0.2"/>
      </g>
    </g>
  </g>
</svg>
