<svg id="Layer_1" height="512" viewBox="0 0 512 512" width="512" xmlns="http://www.w3.org/2000/svg" data-name="Layer 1"><path d="m156.455 460.842h39.818a6 6 0 1 0 0-12h-39.818a6 6 0 0 0 0 12z"/><path d="m395.364 460.842h39.819a6 6 0 0 0 0-12h-39.819a6 6 0 1 0 0 12z"/><path d="m315.728 460.842h39.818a6 6 0 0 0 0-12h-39.818a6 6 0 1 0 0 12z"/><path d="m76.818 460.842h39.819a6 6 0 1 0 0-12h-39.819a6 6 0 1 0 0 12z"/><path d="m236.091 460.842h39.818a6 6 0 0 0 0-12h-39.818a6 6 0 0 0 0 12z"/><path d="m318.922 213.117h-77.332a6 6 0 0 0 0 12h77.332a6 6 0 0 0 0-12z"/><path d="m318.922 255.94h-77.332a6 6 0 1 0 0 12h77.332a6 6 0 0 0 0-12z"/><path d="m318.922 298.764h-77.332a6 6 0 0 0 0 12h77.332a6 6 0 0 0 0-12z"/><path d="m318.922 341.587h-77.332a6 6 0 0 0 0 12h77.332a6 6 0 0 0 0-12z"/><path d="m318.922 384.411h-77.332a6 6 0 1 0 0 12h77.332a6 6 0 0 0 0-12z"/><path d="m370.051 152.883h20.392a10.011 10.011 0 0 0 10-10v-20.34a10.011 10.011 0 0 0 -10-10h-20.392a10.011 10.011 0 0 0 -10 10v20.34a10.011 10.011 0 0 0 10 10zm2-28.34h16.392v16.34h-16.392z"/><path d="m419.272 152.883h20.393a10.011 10.011 0 0 0 10-10v-20.34a10.011 10.011 0 0 0 -10-10h-20.393a10.012 10.012 0 0 0 -10 10v20.34a10.012 10.012 0 0 0 10 10zm2-28.34h16.393v16.34h-16.393z"/><path d="m370.051 210.3h20.392a10.011 10.011 0 0 0 10-10v-20.34a10.011 10.011 0 0 0 -10-10h-20.392a10.011 10.011 0 0 0 -10 10v20.34a10.011 10.011 0 0 0 10 10zm2-28.339h16.392v16.339h-16.392z"/><path d="m419.272 210.3h20.393a10.011 10.011 0 0 0 10-10v-20.34a10.011 10.011 0 0 0 -10-10h-20.393a10.012 10.012 0 0 0 -10 10v20.34a10.011 10.011 0 0 0 10 10zm2-28.339h16.393v16.339h-16.393z"/><path d="m370.051 267.716h20.392a10.011 10.011 0 0 0 10-10v-20.339a10.011 10.011 0 0 0 -10-10h-20.392a10.011 10.011 0 0 0 -10 10v20.339a10.011 10.011 0 0 0 10 10zm2-28.339h16.392v16.339h-16.392z"/><path d="m419.272 267.716h20.393a10.011 10.011 0 0 0 10-10v-20.339a10.011 10.011 0 0 0 -10-10h-20.393a10.012 10.012 0 0 0 -10 10v20.339a10.012 10.012 0 0 0 10 10zm2-28.339h16.393v16.339h-16.393z"/><path d="m370.051 325.133h20.392a10.011 10.011 0 0 0 10-10v-20.34a10.011 10.011 0 0 0 -10-10h-20.392a10.011 10.011 0 0 0 -10 10v20.34a10.011 10.011 0 0 0 10 10zm2-28.34h16.392v16.34h-16.392z"/><path d="m419.272 325.133h20.393a10.011 10.011 0 0 0 10-10v-20.34a10.011 10.011 0 0 0 -10-10h-20.393a10.012 10.012 0 0 0 -10 10v20.34a10.012 10.012 0 0 0 10 10zm2-28.34h16.393v16.34h-16.393z"/><path d="m139.041 65.812h-20.394a10.012 10.012 0 0 0 -10 10v20.339a10.011 10.011 0 0 0 10 10h20.394a10.011 10.011 0 0 0 10-10v-20.339a10.011 10.011 0 0 0 -10-10zm-2 28.339h-16.394v-16.339h16.394z"/><path d="m191.456 65.812h-20.394a10.012 10.012 0 0 0 -10 10v20.339a10.011 10.011 0 0 0 10 10h20.394a10.011 10.011 0 0 0 10-10v-20.339a10.011 10.011 0 0 0 -10-10zm-2 28.339h-16.394v-16.339h16.394z"/><path d="m139.041 123.229h-20.394a10.011 10.011 0 0 0 -10 10v20.339a10.012 10.012 0 0 0 10 10h20.394a10.011 10.011 0 0 0 10-10v-20.339a10.011 10.011 0 0 0 -10-10zm-2 28.339h-16.394v-16.339h16.394z"/><path d="m191.456 123.229h-20.394a10.011 10.011 0 0 0 -10 10v20.339a10.012 10.012 0 0 0 10 10h20.394a10.011 10.011 0 0 0 10-10v-20.339a10.011 10.011 0 0 0 -10-10zm-2 28.339h-16.394v-16.339h16.394z"/><path d="m139.041 180.646h-20.394a10.011 10.011 0 0 0 -10 10v20.339a10.012 10.012 0 0 0 10 10h20.394a10.011 10.011 0 0 0 10-10v-20.339a10.011 10.011 0 0 0 -10-10zm-2 28.339h-16.394v-16.339h16.394z"/><path d="m191.456 180.646h-20.394a10.011 10.011 0 0 0 -10 10v20.339a10.012 10.012 0 0 0 10 10h20.394a10.011 10.011 0 0 0 10-10v-20.339a10.011 10.011 0 0 0 -10-10zm-2 28.339h-16.394v-16.339h16.394z"/><path d="m139.041 238.062h-20.394a10.012 10.012 0 0 0 -10 10v20.338a10.012 10.012 0 0 0 10 10h20.394a10.011 10.011 0 0 0 10-10v-20.34a10.011 10.011 0 0 0 -10-9.998zm-2 28.34h-16.394v-16.34h16.394z"/><path d="m191.456 238.062h-20.394a10.012 10.012 0 0 0 -10 10v20.338a10.012 10.012 0 0 0 10 10h20.394a10.011 10.011 0 0 0 10-10v-20.34a10.011 10.011 0 0 0 -10-9.998zm-2 28.34h-16.394v-16.34h16.394z"/><path d="m139.041 295.479h-20.394a10.012 10.012 0 0 0 -10 10v20.339a10.011 10.011 0 0 0 10 10h20.394a10.011 10.011 0 0 0 10-10v-20.339a10.011 10.011 0 0 0 -10-10zm-2 28.339h-16.394v-16.339h16.394z"/><path d="m191.456 295.479h-20.394a10.012 10.012 0 0 0 -10 10v20.339a10.011 10.011 0 0 0 10 10h20.394a10.011 10.011 0 0 0 10-10v-20.339a10.011 10.011 0 0 0 -10-10zm-2 28.339h-16.394v-16.339h16.394z"/><path d="m139.041 352.9h-20.394a10.012 10.012 0 0 0 -10 10v20.339a10.012 10.012 0 0 0 10 10h20.394a10.011 10.011 0 0 0 10-10v-20.339a10.011 10.011 0 0 0 -10-10zm-2 28.339h-16.394v-16.339h16.394z"/><path d="m191.456 352.9h-20.394a10.012 10.012 0 0 0 -10 10v20.339a10.012 10.012 0 0 0 10 10h20.394a10.011 10.011 0 0 0 10-10v-20.339a10.011 10.011 0 0 0 -10-10zm-2 28.339h-16.394v-16.339h16.394z"/><path d="m234.446 105.849h.031a6 6 0 0 0 5.97-6.03l-.018-3.77a6 6 0 0 0 -6-5.971h-.029a6 6 0 0 0 -5.97 6.029l.018 3.771a6 6 0 0 0 5.998 5.971z"/><path d="m234.461 111.493a6 6 0 0 0 -5.964 6.036l.191 31.869a6 6 0 0 0 6 5.964h.038a6 6 0 0 0 5.964-6.036l-.191-31.868a6.039 6.039 0 0 0 -6.038-5.965z"/><path d="m496 410.565h-22.624l-2.624-304.5a25.234 25.234 0 0 0 -18.732-24.1v-25.431a15.6 15.6 0 0 0 -15.588-15.57h-48.9v-22.084a6 6 0 0 0 -12 0v22.084h-48.9a15.6 15.6 0 0 0 -15.588 15.57v24.579h-5.82a15.6 15.6 0 0 0 -15.587 15.57v60.6l-67.544 29.889v-128.767a15.6 15.6 0 0 0 -15.593-15.57h-148.93a15.6 15.6 0 0 0 -15.588 15.57v352.16h-25.982a6 6 0 0 0 -6 6v76.555a6 6 0 0 0 6 6h480a6 6 0 0 0 6-6v-76.555a6 6 0 0 0 -6-6zm-172.964-354.031a3.583 3.583 0 0 1 3.588-3.57h109.808a3.583 3.583 0 0 1 3.588 3.57v24.579h-116.984zm-21.407 40.149a3.582 3.582 0 0 1 3.587-3.57h140.361a13.194 13.194 0 0 1 13.175 13.044l2.622 304.408h-42.2v-59.9a15.6 15.6 0 0 0 -15.587-15.57h-48.3a15.356 15.356 0 0 0 -3.446.4v-181.811a15.548 15.548 0 0 0 -1.5-6.671 9.514 9.514 0 0 0 .883-3.958v-20.684a9.843 9.843 0 0 0 -9.835-9.828h-20.726a9.843 9.843 0 0 0 -9.835 9.828v20.684a9.755 9.755 0 0 0 1.046 4.386l-10.245 4.534zm105.541 253.977v59.9h-55.333v-59.939a3.412 3.412 0 0 1 3.446-3.531h48.3a3.583 3.583 0 0 1 3.587 3.57zm-67.949-226.117v13.857a15.567 15.567 0 0 0 -9.286 1.052l-3.24 1.434h-3.867v-16.34zm-117.136 75.757 112.706-49.874a3.565 3.565 0 0 1 3.423.275 3.528 3.528 0 0 1 1.623 2.987v256.877h-117.752zm-126-145.461h110.415a3.582 3.582 0 0 1 3.588 3.57v352.16h-114zm-21.093 0h9.093v355.73h-9.094zm-21.009 3.57a3.583 3.583 0 0 1 3.588-3.57h5.421v355.73h-9.01zm436.017 390.433h-15a6 6 0 0 0 0 12h15v26.278h-468v-26.278h15a6 6 0 0 0 0-12h-15v-26.277h468z"/></svg>