<?xml version="1.0" encoding="UTF-8"?>
<svg xmlns="http://www.w3.org/2000/svg" viewBox="0 0 512 512" width="512" height="512"><g id="outline"><path d="M127.7,168v-9.246a24.482,24.482,0,0,0,8.517-4.69A20.857,20.857,0,0,0,143.7,138.3v-1.175a21.165,21.165,0,0,0-10.077-17.691l-19.2-12.33a5.235,5.235,0,0,1-2.723-4.229V101.7a4.854,4.854,0,0,1,1.889-3.611,9.446,9.446,0,0,1,6.1-2.09h.026a9.441,9.441,0,0,1,6.1,2.09,4.852,4.852,0,0,1,1.89,3.611,8,8,0,0,0,16,0,20.857,20.857,0,0,0-7.483-15.764,24.482,24.482,0,0,0-8.517-4.69V72a8,8,0,0,0-16,0v9.247a24.487,24.487,0,0,0-8.517,4.689A20.854,20.854,0,0,0,95.7,101.7v1.175a21.164,21.164,0,0,0,10.077,17.691l19.2,12.33a5.235,5.235,0,0,1,2.723,4.229V138.3a4.854,4.854,0,0,1-1.889,3.611A9.45,9.45,0,0,1,119.7,144h-.014a9.438,9.438,0,0,1-6.1-2.089,4.852,4.852,0,0,1-1.89-3.611,8,8,0,0,0-16,0,20.854,20.854,0,0,0,7.483,15.764,24.482,24.482,0,0,0,8.517,4.69V168a8,8,0,0,0,16,0Z"/><path d="M130.038,394.343l-7.885,7.885a6.015,6.015,0,0,1-7.57.749l-4.9-3.267a21.805,21.805,0,0,0-5.987-2.772V392h8a8,8,0,0,0,0-16h-8V360a8,8,0,0,1,16,0,8,8,0,0,0,16,0,24,24,0,0,0-48,0v16h-8a8,8,0,0,0,0,16h8v6.335a21.829,21.829,0,0,0-5.772,4.123l-7.885,7.885a8,8,0,0,0,11.314,11.314l7.885-7.885a6.011,6.011,0,0,1,7.57-.749l4.9,3.267a22.059,22.059,0,0,0,27.759-2.748l7.885-7.885a8,8,0,0,0-11.314-11.314Z"/><path d="M368.875,363H360.7a8,8,0,1,0,0,16h6v10h-6a8,8,0,1,0,0,16h8.18a40.062,40.062,0,0,0,37.82,27,8,8,0,0,0,0-16,24,24,0,0,1-20.159-11H396.7a8,8,0,0,0,0-16h-14V379h14a8,8,0,0,0,0-16H386.536A24,24,0,0,1,406.7,352a8,8,0,0,0,0-16A40.062,40.062,0,0,0,368.875,363Z"/><path d="M418.038,82.343,391.7,108.686,365.352,82.343a8,8,0,0,0-11.314,11.314L372.381,112H367.7a8,8,0,0,0,0,16h16v8h-16a8,8,0,0,0,0,16h16v8a8,8,0,0,0,16,0v-8h16a8,8,0,0,0,0-16h-16v-8h16a8,8,0,0,0,0-16h-4.687l18.344-18.343a8,8,0,0,0-11.314-11.314Z"/><path d="M471.259,272c.1,0,.2,0,.3,0a8,8,0,0,0,7.989-7.709c.1-2.739.151-5.528.151-8.291a221.94,221.94,0,0,0-20.354-93.371,79.976,79.976,0,1,0-146.487-56.114,160.547,160.547,0,0,0-114.317.009,79.31,79.31,0,0,0-4.293-15.493A174.98,174.98,0,0,1,255.7,80a8,8,0,0,0,0-16,190.847,190.847,0,0,0-68.782,12.7,79.977,79.977,0,1,0-80.7,122.137,160.628,160.628,0,0,0-3.18,105.176,79.527,79.527,0,0,0-45.671,14.827A207.7,207.7,0,0,1,47.7,256a8,8,0,0,0-16,0,223.4,223.4,0,0,0,12.666,74.4A79.976,79.976,0,1,0,182.4,398.246a160.2,160.2,0,0,0,139.309,3.523,79.34,79.34,0,0,0,5.146,15.245A174.322,174.322,0,0,1,255.7,432a8,8,0,1,0,0,16,190.177,190.177,0,0,0,79.261-17.083,79.978,79.978,0,1,0,73.258-126.458,160.576,160.576,0,0,0-3.043-105.617,79.86,79.86,0,0,0,42.883-22.125A206.176,206.176,0,0,1,463.7,256c0,2.569-.047,5.163-.14,7.709A8,8,0,0,0,471.259,272Zm-82.9-72.08A142.3,142.3,0,0,1,399.478,248H311.629a447.225,447.225,0,0,0-4.3-56h49.524A79.432,79.432,0,0,0,388.357,199.915ZM364.849,312H308.387a456.593,456.593,0,0,0,3.242-48h87.84a143.051,143.051,0,0,1-8.123,40.437A79.349,79.349,0,0,0,364.849,312ZM255.7,400c-6.778,0-17.249-10.227-26.313-38.929A258.245,258.245,0,0,1,221.523,328h68.344a258.24,258.24,0,0,1-7.86,33.071C272.943,389.773,262.472,400,255.7,400Zm-94.941-72H205.3a278.584,278.584,0,0,0,8.828,37.889c4.083,12.928,8.793,23.442,14.031,31.448a143.322,143.322,0,0,1-44.546-16.673A79.724,79.724,0,0,0,160.754,328Zm-6.213-136h49.523a447.23,447.23,0,0,0-4.3,56H111.914a142.454,142.454,0,0,1,11.113-48.085A79.439,79.439,0,0,0,154.541,192Zm45.069-68.662a142.114,142.114,0,0,1,28.581-8.729c-5.252,8.013-9.974,18.545-14.066,31.5A264.684,264.684,0,0,0,206.719,176H176.754A79.725,79.725,0,0,0,199.61,123.338Zm82.4,27.591A243.891,243.891,0,0,1,288.361,176H223.029a244.156,244.156,0,0,1,6.353-25.071C238.446,122.227,248.917,112,255.7,112S272.943,122.227,282.007,150.929ZM291.174,192a428.042,428.042,0,0,1,4.451,56h-79.86a427.874,427.874,0,0,1,4.45-56ZM120.547,305.8a143.055,143.055,0,0,1-8.626-41.8h87.84A456.593,456.593,0,0,0,203,312H138.7c-.048,0-.093.006-.14.007A79.373,79.373,0,0,0,120.547,305.8ZM219.11,312a438.1,438.1,0,0,1-3.345-48h79.86a438.591,438.591,0,0,1-3.345,48Zm85.561-136a264.9,264.9,0,0,0-7.406-29.889c-4.09-12.95-8.809-23.478-14.058-31.489a142.36,142.36,0,0,1,28.573,8.716A79.725,79.725,0,0,0,334.636,176ZM55.7,120a64,64,0,1,1,64,64A64.072,64.072,0,0,1,55.7,120Zm48,328a64,64,0,1,1,64-64A64.072,64.072,0,0,1,103.7,448ZM283.2,397.388c5.252-8.012,9.973-18.543,14.065-31.5A278.584,278.584,0,0,0,306.093,328h36.543A79.726,79.726,0,0,0,319.7,384c0,.337.021.668.025,1A141.935,141.935,0,0,1,283.2,397.388ZM463.7,384a64,64,0,1,1-64-64A64.073,64.073,0,0,1,463.7,384Zm-72-200a64,64,0,1,1,64-64A64.072,64.072,0,0,1,391.7,184Z"/></g></svg>
