<svg xmlns="http://www.w3.org/2000/svg" width="34.61" height="38.844" viewBox="0 0 34.61 38.844">
  <path id="clerk-with-tie" d="M38.616,14.466c-.6,2.312-2.016,2.821-2.769,2.924a15.247,15.247,0,0,1-2.5,3.775,4.985,4.985,0,0,1-1.574.954,6.943,6.943,0,0,1-5.106,0,4.98,4.98,0,0,1-1.574-.954,15.239,15.239,0,0,1-2.5-3.775c-.753-.1-2.164-.611-2.769-2.924a3.679,3.679,0,0,1,.246-3,2.339,2.339,0,0,1,.719-.712c0-.247.011-.556.04-.907a4.25,4.25,0,0,1-.3-4.042,3.6,3.6,0,0,1,3.388-2.62A5.874,5.874,0,0,1,25.729,1.2,7,7,0,0,1,29.75,0a9.071,9.071,0,0,1,5.369,1.878c2.7,1.992,2.472,6.41,2.405,7.212a11.971,11.971,0,0,1,.127,1.668,2.338,2.338,0,0,1,.719.712A3.68,3.68,0,0,1,38.616,14.466Zm7.906,17.218v6.272a.889.889,0,0,1-.889.889H12.8a.889.889,0,0,1-.889-.889V31.684a6.217,6.217,0,0,1,3.927-5.8l7.769-3.107a.889.889,0,0,1,1.165.523l1.953,5.4.387-1.112-.615-1.5a.889.889,0,0,1,.822-1.225h3.795a.889.889,0,0,1,.822,1.225l-.615,1.5.387,1.112,1.953-5.4a.889.889,0,0,1,1.165-.523l7.769,3.107A6.217,6.217,0,0,1,46.521,31.684Zm-4.73.682a.889.889,0,0,0-.889-.889H34.937a.889.889,0,0,0-.889.889v2.77a.889.889,0,0,0,.889.889H40.9a.889.889,0,0,0,.889-.889Z" transform="translate(-11.911)" fill="#484545" opacity="0.9"/>
</svg>
