<svg xmlns="http://www.w3.org/2000/svg" width="35" height="36.522" viewBox="0 0 35 36.522">
  <g id="surface1" transform="translate(-1.984)">
    <path id="Path_99" data-name="Path 99" d="M9.594,0A1.532,1.532,0,0,0,8.072,1.522V3.044H3.506A1.47,1.47,0,0,0,1.984,4.566V9.893h35V4.566a1.469,1.469,0,0,0-1.519-1.522H30.9V1.522A1.532,1.532,0,0,0,29.377,0H27.855a1.532,1.532,0,0,0-1.522,1.522V3.044h-13.7V1.522A1.531,1.531,0,0,0,11.116,0Zm0,1.522h1.522V6.088H9.594Zm18.261,0h1.522V6.088H27.855ZM1.984,11.415V35a1.471,1.471,0,0,0,1.522,1.519H35.465A1.472,1.472,0,0,0,36.984,35V11.415ZM23.433,22.827h5.8a.9.9,0,0,1,.9.9v5.8a.9.9,0,0,1-.9.9h-5.8a.9.9,0,0,1-.9-.9v-5.8A.9.9,0,0,1,23.433,22.827Z" fill="#595656"/>
  </g>
</svg>
