<svg xmlns="http://www.w3.org/2000/svg" width="22.501" height="20" viewBox="0 0 22.501 20">
  <path id="Path_12" data-name="Path 12" d="M4.627,2.961A1.67,1.67,0,0,0,2.961,4.627V21.3a1.67,1.67,0,0,0,1.666,1.666H16.294A1.67,1.67,0,0,0,17.96,21.3v-7.5H11.293a.833.833,0,0,1,0-1.666H17.96v-7.5a1.67,1.67,0,0,0-1.666-1.666ZM17.96,12.128v1.666h4.654L20.7,15.7a.834.834,0,1,0,1.178,1.181l3.335-3.335a.83.83,0,0,0,0-1.178L21.882,9.037a.822.822,0,0,0-.6-.251.833.833,0,0,0-.581,1.432l1.91,1.91Z" transform="translate(-2.961 -2.961)" fill="#fff"/>
</svg>
