<svg xmlns="http://www.w3.org/2000/svg" width="49.614" height="49.602" viewBox="0 0 49.614 49.602">
  <g id="surface1" transform="translate(0 0.001)">
    <path id="Path_100" data-name="Path 100" d="M39.93,0a.977.977,0,0,0-.867.465L37.48,3.039a9.3,9.3,0,0,0-1.582,0L34.289.5A1.013,1.013,0,0,0,33.047.125L30.258,1.3a1.014,1.014,0,0,0-.59,1.148l.684,2.945A9.664,9.664,0,0,0,29.2,6.543l-2.945-.684a.973.973,0,0,0-1.113.621L24,9.3a.973.973,0,0,0,.371,1.207L26.91,12.09a9.634,9.634,0,0,0,.031,1.645L24.4,15.316a1,1,0,0,0-.371,1.238L25.2,19.344a.972.972,0,0,0,1.117.59l2.945-.648A9.378,9.378,0,0,0,30.414,20.4l-.652,2.945a1.006,1.006,0,0,0,.59,1.148l2.82,1.144a.951.951,0,0,0,.371.063.988.988,0,0,0,.84-.465l1.641-2.57a9.667,9.667,0,0,0,1.613-.031l1.645,2.57a.979.979,0,0,0,1.207.375l2.82-1.18a.982.982,0,0,0,.559-1.148L43.156,20.3A9.953,9.953,0,0,0,44.27,19.16l2.977.648a1,1,0,0,0,1.148-.586L49.543,16.4a1.015,1.015,0,0,0-.406-1.238l-2.6-1.582a9.739,9.739,0,0,0,0-1.582l2.539-1.672a1,1,0,0,0,.406-1.211L48.27,6.324a1,1,0,0,0-1.148-.59l-2.941.715a9.733,9.733,0,0,0-1.117-1.117l.621-2.977a1.011,1.011,0,0,0-.59-1.145L40.273.063A.954.954,0,0,0,39.93,0ZM36.707,8.8a4.053,4.053,0,1,1-3.723,2.512A4.077,4.077,0,0,1,36.707,8.8ZM14.414,16.863a1.006,1.006,0,0,0-.988.84L12.8,21.609a12.149,12.149,0,0,0-2.141.867L7.441,20.184a.984.984,0,0,0-1.273.09L3.441,23a.993.993,0,0,0-.094,1.269l2.266,3.258a12.08,12.08,0,0,0-.9,2.137l-3.875.621A1.013,1.013,0,0,0,0,31.281v3.844a1,1,0,0,0,.8.992l3.906.684a12.083,12.083,0,0,0,.9,2.137l-2.3,3.227a.979.979,0,0,0,.094,1.27L6.137,46.16a.989.989,0,0,0,1.273.094l3.254-2.262a11.689,11.689,0,0,0,2.109.867l.652,3.906a1.006,1.006,0,0,0,.988.836h3.848a1,1,0,0,0,.992-.8l.68-3.969a11.848,11.848,0,0,0,2.109-.867l3.285,2.293A.989.989,0,0,0,26.6,46.16l2.726-2.727a1.022,1.022,0,0,0,.094-1.3L27.1,38.906a12.505,12.505,0,0,0,.867-2.105l3.969-.684a1,1,0,0,0,.8-.992V31.281a.977.977,0,0,0-.836-.961l-3.937-.652a12.5,12.5,0,0,0-.867-2.105l2.293-3.289A.993.993,0,0,0,29.3,23L26.57,20.273a.98.98,0,0,0-1.273-.09l-3.254,2.324a11.8,11.8,0,0,0-2.109-.867l-.68-3.937a1.023,1.023,0,0,0-.992-.84Zm1.953,11.254a5.115,5.115,0,1,1-5.113,5.117A5.107,5.107,0,0,1,16.367,28.117Z" fill="#595656"/>
  </g>
</svg>
