<svg id="light" enable-background="new 0 0 24 24" height="512" viewBox="0 0 24 24" width="512" xmlns="http://www.w3.org/2000/svg"><g><path d="m6.5 20c-.1 0-.2 0-.3-.1-.2-.2-.2-.5-.1-.7l1.1-1.3c.7-.9.9-2.1.4-3.2-.1-.2-.1-.4.1-.6l1.8-1.8c.7-.7.7-1.9 0-2.6l-5.6 5.2c-.2.2-.5.2-.7 0s-.2-.5 0-.7l5.6-5.2c.4-.4 1-.4 1.4 0 1.1 1.1 1.1 2.9 0 4.1l-1.6 1.6c.5 1.3.3 2.8-.6 3.9l-1.1 1.3c-.1 0-.3.1-.4.1z"/></g><g><path d="m9.5 24h-9c-.3 0-.5-.2-.5-.5v-7.6c0-2.3 1.1-4.6 3-6l2-1.5c.2-.2.5-.1.7.1s.2.5 0 .6l-2.1 1.6c-1.6 1.2-2.6 3.2-2.6 5.2v7.1h8v-1.5c0-.3.2-.5.5-.5 1.1 0 2-.9 2-2v-.5c0-.3.2-.5.5-.5s.5.2.5.5v.5c0 1.5-1.1 2.7-2.5 3v1.5c0 .3-.2.5-.5.5z"/></g><g><path d="m20.5 19h-13c-.3 0-.5-.2-.5-.5s.2-.5.5-.5h13c.3 0 .5-.2.5-.5v-16c0-.3-.2-.5-.5-.5h-14c-.3 0-.5.2-.5.5v11.2c0 .3-.2.5-.5.5s-.5-.3-.5-.5v-11.2c0-.8.7-1.5 1.5-1.5h14c.8 0 1.5.7 1.5 1.5v16c0 .8-.7 1.5-1.5 1.5z"/></g></svg>