<svg id="_x31_px" enable-background="new 0 0 24 24" height="512" viewBox="0 0 24 24" width="512" xmlns="http://www.w3.org/2000/svg"><g id="XMLID_1_"><path d="m23.25 12.497h-.26c.01-.16.01-.33.01-.5s0-.34-.01-.5h.26c.28 0 .5.23.5.5 0 .28-.22.5-.5.5z"/><path d="m22.99 11.497c.01.16.01.33.01.5s0 .34-.01.5h-2.9c-.28 0-.5-.22-.5-.5 0-.27.22-.5.5-.5z"/><path d="m20.51 4.127.5.87c-.12.07-.24.13-.37.2-.21-.27-.44-.53-.68-.78.19-.1.38-.19.55-.29z"/><path d="m20.64 5.197c-.96.49-2.09.9-3.32 1.2-.08-.33-.18-.66-.28-.97 1.08-.26 2.07-.6 2.92-1.01.24.25.47.51.68.78z"/><path d="m17.95 10.467c.02.28-.19.52-.47.53-.26.02-.51-.19-.53-.47-.09-1.41-.3-2.74-.62-3.93.33-.06.66-.13.99-.2.32 1.23.54 2.6.63 4.07z"/><path d="m17.32 6.397c-.33.07-.66.14-.99.2-.09-.34-.18-.66-.29-.96.34-.06.67-.13 1-.21.1.31.2.64.28.97z"/><path d="m12.29.007c6.49.15 11.71 5.48 11.71 11.99 0 .58-.03 1.1-.1 1.6-.04.28-.29.47-.57.43-.27-.04-.46-.29-.42-.57.04-.3.07-.62.08-.96h.26c.28 0 .5-.22.5-.5 0-.27-.22-.5-.5-.5h-.26c-.11-2.38-.97-4.55-2.35-6.3.13-.07.25-.13.37-.2l-.5-.87c-.17.1-.36.19-.55.29-1.38-1.45-3.15-2.53-5.14-3.05-.75-.8-1.61-1.27-2.53-1.36z"/><path d="m16.04 5.637c-.82-2.51-2.12-4.24-3.54-4.58v-.05c.8.04 1.57.16 2.32.36.91.94 1.67 2.34 2.22 4.06-.33.08-.66.15-1 .21z"/><path d="m15.26 11.997c0 .28-.22.5-.5.5h-2.26v-1h2.26c.28 0 .5.23.5.5z"/><path d="m12.5 6.987v-1c1.23-.02 2.42-.14 3.54-.35.11.3.2.62.29.96-1.21.24-2.5.37-3.83.39z"/><path d="m13.21 18.497 3.79 3.8v-1.8c0-.27.22-.5.5-.5h5.5v-3h-5.5c-.28 0-.5-.22-.5-.5v-1.79zm3.94 5.36-5-5c-.2-.2-.2-.51 0-.71l5-5c.14-.14.35-.19.54-.11s.31.26.31.46v2.5h5c.55 0 1 .45 1 1v3c0 .55-.45 1-1 1h-5v2.5c0 .21-.12.39-.31.47-.06.02-.13.03-.19.03-.13 0-.26-.05-.35-.14z"/><path d="m12.29.007c.92.09 1.78.56 2.53 1.36-.75-.2-1.52-.32-2.32-.36v-.51c0-.27-.22-.5-.5-.5.1 0 .19 0 .29.01z"/><path d="m12.5 23.467c-.02-.26-.23-.47-.5-.47.16 0 .33 0 .5-.01z"/><path d="m12.5 12.497v2.26c0 .28-.22.5-.5.5s-.5-.22-.5-.5v-2.26z"/><path d="m11.5 11.497h1v1h-1z"/><path d="m12 6.997c.17 0 .34 0 .5-.01v4.51h-1v-4.51c.16.01.33.01.5.01z"/><path d="m12 6.997c-.17 0-.34 0-.5-.01v-1c.16.01.33.01.5.01s.34 0 .5-.01v1c-.16.01-.33.01-.5.01z"/><path d="m12.5 1.057v4.93c-.16.01-.33.01-.5.01s-.34 0-.5-.01v-4.93c.16-.04.33-.06.5-.06s.34.02.5.06z"/><path d="m12.5 1.007v.05c-.16-.04-.33-.06-.5-.06.17 0 .33 0 .5.01z"/><path d="m12 23.997c.28 0 .5-.22.5-.5 0-.01 0-.02 0-.03v-.48c.21-.01.43-.02.65-.04.28-.03.52.17.55.44.02.28-.18.52-.45.55-.42.04-.83.06-1.25.06z"/><path d="m12.5 23.497c0 .28-.22.5-.5.5-.03 0-.07 0-.1-.01-.23-.05-.4-.25-.4-.49v-.51c.15.01.3.01.45.01h.05c.27 0 .48.21.5.47z"/><path d="m11.95 22.997c-.15 0-.3-.02-.45-.06v-.7c0-.27.22-.5.5-.5s.5.23.5.5v.75c-.17.01-.34.01-.5.01-.02 0-.03 0-.05 0z"/><path d="m11.5 1.007v-.51c0-.24.17-.44.4-.49.03-.01.07-.01.1-.01.28 0 .5.23.5.5v.51c-.17-.01-.33-.01-.5-.01s-.33 0-.5.01z"/><path d="m11.5 1.007c.17-.01.33-.01.5-.01-.17 0-.34.02-.5.06z"/><path d="m11.95 22.997c-.15 0-.3 0-.45-.01v-.05c.15.04.3.06.45.06z"/><path d="m11.9 23.987c-.99-.02-1.91-.51-2.72-1.36.75.2 1.52.32 2.32.36v.51c0 .24.17.44.4.49z"/><path d="m11.5 11.497v1h-4.49c-.01-.17-.01-.33-.01-.5s0-.33.01-.5z"/><path d="m11.5.497v.51c-.8.04-1.57.16-2.32.36.81-.85 1.73-1.34 2.72-1.36-.23.05-.4.25-.4.49z"/><path d="m9.59 17.127c.28-.03.52.17.55.44.03.28-.18.52-.45.55-.6.06-1.18.14-1.74.25-.1-.31-.2-.63-.28-.97.62-.11 1.26-.21 1.92-.27z"/><path d="m7.95 5.637c1.12.21 2.32.33 3.55.35v1c-1.33-.02-2.62-.15-3.83-.39.08-.33.18-.65.28-.96z"/><path d="m11.5 1.057c-1.44.33-2.73 2.08-3.55 4.58-.34-.06-.67-.13-.99-.21.55-1.72 1.31-3.12 2.22-4.06.75-.2 1.52-.32 2.32-.36z"/><path d="m9.18 22.627c-.91-.94-1.67-2.34-2.22-4.05.32-.08.65-.15.99-.21.83 2.5 2.11 4.24 3.55 4.57v.05c-.8-.04-1.57-.16-2.32-.36z"/><path d="m6.96 5.427c.32.08.65.15.99.21-.1.31-.2.63-.28.96-.34-.06-.67-.13-1-.2.09-.34.18-.66.29-.97z"/><path d="m7.67 17.397c.08.34.18.66.28.97-.34.06-.67.13-.99.21-.1-.31-.2-.63-.28-.96.32-.08.65-.15.99-.22z"/><path d="m7.67 6.597c-.39 1.47-.63 3.14-.66 4.9h-1c.03-1.85.27-3.58.66-5.1.33.07.66.14 1 .2z"/><path d="m7.01 12.497c.03 1.76.27 3.43.66 4.9-.34.07-.67.14-.99.22-.4-1.52-.64-3.26-.67-5.12z"/><path d="m6.01 12.497c-.01-.17-.01-.33-.01-.5s0-.33.01-.5h1c-.01.17-.01.33-.01.5s0 .33.01.5z"/><path d="m6.96 5.427c-.11.31-.2.63-.29.97-1.23-.3-2.35-.7-3.31-1.2.21-.27.44-.53.68-.78.85.41 1.84.75 2.92 1.01z"/><path d="m6 11.997c0 .17 0 .33.01.5h-5c-.01-.17-.01-.33-.01-.5s0-.34.01-.5h5c-.01.17-.01.33-.01.5z"/><path d="m6.96 18.577c-1.08.25-2.07.59-2.92 1.01-.24-.25-.46-.51-.68-.78.95-.49 2.08-.89 3.32-1.19.08.33.18.65.28.96z"/><path d="m3.49 4.127c.17.1.36.19.55.29-.24.25-.47.51-.68.78-.13-.07-.25-.13-.37-.2z"/><path d="m3.36 18.807c.22.27.44.53.68.78-.19.09-.37.19-.55.29-.08.04-.17.06-.25.06-.13 0-.26-.05-.35-.14-.03-.03-.06-.07-.08-.11-.14-.24-.06-.54.18-.68.12-.07.24-.13.37-.2z"/><path d="m4.04 19.587c1.38 1.45 3.15 2.52 5.14 3.04.81.85 1.73 1.34 2.72 1.36.03.01.07.01.1.01-3.64 0-6.91-1.63-9.11-4.2.09.09.22.14.35.14.08 0 .17-.02.25-.06.18-.1.36-.2.55-.29z"/><path d="m1.01 11.497c-.01.16-.01.33-.01.5s0 .33.01.5h-.26c-.28 0-.5-.22-.5-.5 0-.27.22-.5.5-.5z"/><path d="m9.18 1.367c-1.99.52-3.76 1.6-5.14 3.05-.19-.1-.38-.19-.55-.29l-.5.87c.12.07.24.13.37.2-1.38 1.75-2.24 3.92-2.35 6.3h-.26c-.28 0-.5.23-.5.5 0 .28.22.5.5.5h.26c.11 2.37.97 4.56 2.35 6.31-.13.07-.25.13-.37.2-.24.14-.32.44-.18.68.02.04.05.08.08.11-1.8-2.09-2.89-4.82-2.89-7.8 0-6.61 5.38-12 12-12-.03 0-.07 0-.1.01-.99.02-1.91.51-2.72 1.36z"/></g></svg>