<svg id="Capa_1" enable-background="new 0 0 512 512" height="512" viewBox="0 0 512 512" width="512" xmlns="http://www.w3.org/2000/svg"><g><path d="m479.5 428.809h-23.194v-92.912c0-4.142-3.357-7.5-7.5-7.5s-7.5 3.358-7.5 7.5v32.227h-116.439v-85.942c0-6.893-5.607-12.5-12.5-12.5h-112.734c-6.893 0-12.5 5.607-12.5 12.5v85.942h-47.881c-4.143 0-7.5 3.358-7.5 7.5s3.357 7.5 7.5 7.5h47.881v45.684h-116.439v-45.684h35.871c4.143 0 7.5-3.358 7.5-7.5s-3.357-7.5-7.5-7.5h-35.871v-106.17c2.561.391 5.182.594 7.851.594 18.781 0 35.261-10.035 44.363-25.024 9.102 14.989 25.583 25.024 44.364 25.024s35.261-10.035 44.363-25.024c9.102 14.989 25.583 25.024 44.364 25.024s35.262-10.035 44.364-25.024c9.102 14.989 25.583 25.024 44.363 25.024 18.781 0 35.262-10.035 44.363-25.024 9.103 14.989 25.583 25.024 44.364 25.024 2.668 0 5.29-.203 7.851-.594v41.256c0 4.142 3.357 7.5 7.5 7.5s7.5-3.358 7.5-7.5v-45.05c0-.306-.024-.605-.059-.901 17.201-8.452 29.073-26.15 29.073-46.574v-36.002c0-1.291-.348-2.613-.994-3.731l-25.678-44.776c-3.999-6.975-11.479-11.307-19.518-11.307h-21.453v-69.369c0-9.649-7.851-17.5-17.5-17.5h-221.814c-4.143 0-7.5 3.358-7.5 7.5s3.357 7.5 7.5 7.5h221.815c1.379 0 2.5 1.122 2.5 2.5v85.541c0 1.378-1.121 2.5-2.5 2.5h-288.353c-1.379 0-2.5-1.122-2.5-2.5v-85.541c0-1.378 1.121-2.5 2.5-2.5h33.852c4.143 0 7.5-3.358 7.5-7.5s-3.357-7.5-7.5-7.5h-33.852c-9.649 0-17.5 7.851-17.5 17.5v69.369h-21.453c-8.039 0-15.519 4.333-19.518 11.307l-25.678 44.776c-.646 1.118-.994 2.44-.994 3.731v36.002c0 20.401 11.844 38.08 29.014 46.544v171.58h-23.194c-17.921 0-32.5 14.58-32.5 32.5v10.191c0 6.893 5.607 12.5 12.5 12.5h487c6.893 0 12.5-5.607 12.5-12.5v-10.191c0-17.92-14.579-32.5-32.5-32.5zm-312.227-181.26c-20.327 0-36.864-16.537-36.864-36.864v-28.502h73.727v28.502c0 20.327-16.537 36.864-36.863 36.864zm88.727 0c-20.327 0-36.864-16.537-36.864-36.864v-28.502h73.729v28.502c-.001 20.327-16.538 36.864-36.865 36.864zm88.728 0c-20.326 0-36.863-16.537-36.863-36.864v-28.502h73.727v28.502c-.001 20.327-16.538 36.864-36.864 36.864zm88.727 0c-20.327 0-36.864-16.537-36.864-36.864v-28.502h73.729v28.502c-.001 20.327-16.538 36.864-36.865 36.864zm-367.091-113.911c1.334-2.325 3.826-3.769 6.506-3.769h21.453v1.172c0 9.649 7.851 17.5 17.5 17.5h288.354c9.649 0 17.5-7.851 17.5-17.5v-1.172h21.453c2.68 0 5.172 1.444 6.506 3.769l19.237 33.545h-417.746zm-24.683 77.048v-28.502h73.728v28.502c0 20.327-16.537 36.864-36.863 36.864-20.328-.001-36.865-16.538-36.865-36.864zm399.625 172.439v45.684h-116.439v-45.684zm-131.439 45.684h-46.367v-144.126h46.367zm-107.734-144.126h46.367v144.126h-46.367zm294.867 184.317h-482v-7.691c0-9.649 7.851-17.5 17.5-17.5h447c9.649 0 17.5 7.851 17.5 17.5z"/><path d="m354.982 269.683c-6.893 0-12.5 5.607-12.5 12.5v57.378c0 6.892 5.607 12.5 12.5 12.5h57.377c6.893 0 12.5-5.608 12.5-12.5v-57.378c0-6.893-5.607-12.5-12.5-12.5zm54.877 67.377h-52.377v-52.378h52.377z"/><path d="m157.018 269.683h-57.377c-6.893 0-12.5 5.607-12.5 12.5v57.378c0 6.892 5.607 12.5 12.5 12.5h57.377c6.893 0 12.5-5.608 12.5-12.5v-57.378c0-6.893-5.608-12.5-12.5-12.5zm-2.5 67.377h-52.377v-52.378h52.377z"/><path d="m197.114 51.344c-4.143 0-7.5 3.358-7.5 7.5v59.465c0 4.142 3.357 7.5 7.5 7.5s7.5-3.358 7.5-7.5v-23.252h26.15v23.253c0 4.142 3.357 7.5 7.5 7.5s7.5-3.358 7.5-7.5v-59.466c0-4.142-3.357-7.5-7.5-7.5s-7.5 3.358-7.5 7.5v21.213h-26.15v-21.213c0-4.142-3.357-7.5-7.5-7.5z"/><path d="m151.116 66.96c8.346-2.51 16.082 3.594 16.303 3.771 3.172 2.629 7.874 2.209 10.528-.948 2.665-3.171 2.256-7.902-.915-10.567-.563-.472-13.959-11.524-30.242-6.619-8.234 2.48-14.06 8.972-15.204 16.941-1.074 7.479 2.168 14.673 8.459 18.775.332.216.68.405 1.041.566.344.154 8.535 3.8 17.76 7.202 2.592.956 8.534 3.651 7.754 8.021-.588 3.297-4.61 6.707-10.322 6.707-5.892 0-11.561-2.374-15.164-6.351-2.781-3.069-7.524-3.303-10.594-.522-3.069 2.781-3.303 7.524-.521 10.594 6.4 7.063 16.224 11.279 26.279 11.279 12.564 0 23.116-8.02 25.089-19.07 1.485-8.318-2.287-19.183-17.329-24.731-7.293-2.69-14.083-5.619-16.18-6.537-1.585-1.28-1.531-3.06-1.424-3.803.148-1.035.903-3.57 4.682-4.708z"/><path d="m350.277 118.31v-18.37c3.313-.017 6.949-.032 9.058-.032 13.569 0 24.609-10.893 24.609-24.282s-11.04-24.281-24.609-24.281h-16.558c-4.03-.08-7.57 3.476-7.5 7.5v59.465c0 4.142 3.357 7.5 7.5 7.5s7.5-3.358 7.5-7.5zm9.058-51.966c5.209 0 9.609 4.25 9.609 9.281s-4.4 9.282-9.609 9.282c-2.094 0-5.686.015-8.983.032v-18.595z"/><path d="m327.334 88.577c0-20.53-16.702-37.232-37.232-37.232s-37.233 16.702-37.233 37.232 16.703 37.233 37.233 37.233 37.232-16.703 37.232-37.233zm-59.466 0c0-12.259 9.974-22.232 22.233-22.232s22.232 9.974 22.232 22.232c0 12.259-9.974 22.233-22.232 22.233-12.259 0-22.233-9.974-22.233-22.233z"/></g></svg>