<svg xmlns="http://www.w3.org/2000/svg" width="45" height="46.755" viewBox="0 0 45 46.755">
  <g id="surface1" transform="translate(-1.974 -1.973)">
    <path id="Path_98" data-name="Path 98" d="M32.427,1.973a2,2,0,0,0-.69.142L18.491,7.731a1.809,1.809,0,0,0-.954,2.363l3.516,8.285a1.8,1.8,0,0,0,2.356.947L36.648,13.7a1.782,1.782,0,0,0,.954-2.349L34.086,3.069A1.794,1.794,0,0,0,32.427,1.973Zm-21.509,3.6a1.712,1.712,0,0,0-.754.185l-7.2,3.594a1.809,1.809,0,0,0-.8,2.42,1.79,1.79,0,0,0,2.406.8L10.05,9.838,20.861,35.5a8.931,8.931,0,0,0,1.63,2.541,5.452,5.452,0,1,0,5.858,2.876,8.971,8.971,0,0,0,4.406-.662h.007l13.089-5.744a1.77,1.77,0,0,0,1.11-1.445,1.8,1.8,0,0,0-.733-1.673,1.822,1.822,0,0,0-1.822-.178l-13.1,5.744a5.372,5.372,0,0,1-7.132-2.847L12.619,6.663A1.789,1.789,0,0,0,10.918,5.574Zm27.666,10.9a1.891,1.891,0,0,0-.7.149L24.648,22.229a1.8,1.8,0,0,0-.954,2.363L27.2,32.87a1.8,1.8,0,0,0,2.363.961L42.8,28.208a1.792,1.792,0,0,0,.954-2.356l-3.509-8.285A1.808,1.808,0,0,0,38.584,16.471ZM23.552,41.532a1.8,1.8,0,1,1-1.8,1.8A1.775,1.775,0,0,1,23.552,41.532Z" transform="translate(0 0)" fill="#595656"/>
  </g>
</svg>
