<svg xmlns="http://www.w3.org/2000/svg" width="38.456" height="38.09" viewBox="0 0 38.456 38.09">
  <g id="download-database" transform="translate(0)" opacity="0.9">
    <g id="Group_34" data-name="Group 34" transform="translate(0 0)">
      <path id="Path_47" data-name="Path 47" d="M14.932,18.586c8.25,0,14.932-2.674,14.932-5.974V6.638c0-3.3-6.686-5.974-14.932-5.974S0,3.338,0,6.638v5.974C0,15.913,6.684,18.586,14.932,18.586Zm0-16.427c8.2,0,13.439,2.653,13.439,4.479s-5.235,4.481-13.439,4.481S1.493,8.466,1.493,6.64,6.729,2.159,14.932,2.159Z" transform="translate(0 -0.664)" fill="#484545"/>
      <path id="Path_48" data-name="Path 48" d="M14.932,66.814A35.639,35.639,0,0,0,20,66.454a10.319,10.319,0,0,1,9.865-7.332V54.866c0,3.3-6.686,5.974-14.932,5.974S0,58.167,0,54.866V60.84C0,64.139,6.684,66.814,14.932,66.814Z" transform="translate(0 -39.93)" fill="#484545"/>
      <path id="Path_49" data-name="Path 49" d="M14.932,93.352C6.684,93.352,0,90.68,0,87.379v5.973c0,3.3,6.686,5.975,14.932,5.975a34.688,34.688,0,0,0,6.39-.581,10.241,10.241,0,0,1-1.762-5.69A36.032,36.032,0,0,1,14.932,93.352Z" transform="translate(0 -63.484)" fill="#484545"/>
      <path id="Path_50" data-name="Path 50" d="M85.8,93.723A8.591,8.591,0,1,0,77.2,85.132,8.592,8.592,0,0,0,85.8,93.723Zm-1.288-8.591v-4.3h2.577v4.3h2.148l-3.436,4.3-3.436-4.3Z" transform="translate(-55.931 -55.633)" fill="#484545"/>
    </g>
  </g>
</svg>
