<svg xmlns="http://www.w3.org/2000/svg" width="42.301" height="45.86" viewBox="0 0 42.301 45.86">
  <g id="management" transform="translate(0)" opacity="0.9">
    <g id="Group_29" data-name="Group 29" transform="translate(0 30.357)">
      <g id="Group_28" data-name="Group 28" transform="translate(0)">
        <path id="Path_44" data-name="Path 44" d="M24.9,338.915l-5.034,5.034,10.469,10.469,5.034-5.034Zm6.374,12.6a1.193,1.193,0,1,1,1.193-1.193A1.193,1.193,0,0,1,31.273,351.516Z" transform="translate(-19.864 -338.915)" fill="#484545"/>
      </g>
    </g>
    <g id="Group_31" data-name="Group 31" transform="translate(8.002 18.114)">
      <g id="Group_30" data-name="Group 30">
        <path id="Path_45" data-name="Path 45" d="M142.494,203.056a3.208,3.208,0,0,0-4.437.134l-7.006,7.006-.014,0a3.066,3.066,0,0,0,.489-1.555,3.159,3.159,0,0,0-3.156-3.274h-7.559a8.131,8.131,0,0,0-5.749,2.381l-5.858,5.858,7,7,1.244-1.244h10.009a8.131,8.131,0,0,0,5.749-2.381l9.377-9.377A3.158,3.158,0,0,0,142.494,203.056Z" transform="translate(-109.203 -202.229)" fill="#484545"/>
      </g>
    </g>
    <g id="Group_33" data-name="Group 33" transform="translate(11.673)">
      <g id="Group_32" data-name="Group 32" transform="translate(0)">
        <path id="Path_46" data-name="Path 46" d="M171.894,10.467a9.237,9.237,0,0,0-1.082-2.61L173.12,5l-2.578-2.578-2.855,2.308a9.237,9.237,0,0,0-2.61-1.082L164.69,0h-3.646l-.386,3.65a9.237,9.237,0,0,0-2.61,1.082l-2.855-2.308L152.614,5l2.308,2.855a9.236,9.236,0,0,0-1.082,2.61l-3.65.386V14.5l3.65.386a9.237,9.237,0,0,0,1.082,2.61l-1.9,2.349q.469-.25.964-.456a10.764,10.764,0,0,1,4.14-.823h7.559a5.8,5.8,0,0,1,4.206,1.786q.1.1.193.209l1.773-1.773L170.812,17.5a9.237,9.237,0,0,0,1.082-2.61l3.65-.386V10.854Zm-9.027,6.482a4.272,4.272,0,1,1,4.272-4.272A4.272,4.272,0,0,1,162.867,16.949Z" transform="translate(-150.19)" fill="#484545"/>
      </g>
    </g>
  </g>
</svg>
