<svg xmlns="http://www.w3.org/2000/svg" width="38.456" height="34.1" viewBox="0 0 38.456 34.1">
  <g id="money-growth" opacity="0.9">
    <path id="Path_52" data-name="Path 52" d="M106.162,419.7H98.876V417H89.412v2.7H82.127a1.127,1.127,0,1,0,0,2.253h24.035a1.127,1.127,0,1,0,0-2.253Z" transform="translate(-74.916 -387.858)" fill="#484545"/>
    <path id="Path_53" data-name="Path 53" d="M35.076,29H3.38A3.384,3.384,0,0,0,0,32.38V52.509a3.384,3.384,0,0,0,3.38,3.38h31.7a3.384,3.384,0,0,0,3.38-3.38V32.38A3.384,3.384,0,0,0,35.076,29ZM23.434,51.082c-18.571,0-17.555.039-17.856-.086a1.129,1.129,0,0,1-.66-.764c-.055-.217-.036.7-.036-14.1a1.127,1.127,0,1,1,2.253,0v11.1l4.686-4.686a1.127,1.127,0,0,1,1.593,0l.405.405,2.809-2.809a1.127,1.127,0,0,1,1.593,0l1.006,1.006,3.41-3.41a1.127,1.127,0,0,1,1.593,1.593l-4.206,4.206a1.127,1.127,0,0,1-1.593,0l-1.006-1.006-2.809,2.809a1.127,1.127,0,0,1-1.593,0l-.405-.405-3.89,3.89H23.434a1.127,1.127,0,0,1,0,2.253Zm7.711-3.755v.236a1.127,1.127,0,1,1-2.253,0v-.108a4.078,4.078,0,0,1-1.593-.677,1.127,1.127,0,0,1,1.234-1.885,2,2,0,0,0,1.478.382,1.07,1.07,0,0,0,1.07-.909.752.752,0,0,0-.565-.9,9.414,9.414,0,0,1-2.574-1.243,2.822,2.822,0,0,1,.95-4.723v-.163a1.127,1.127,0,1,1,2.253,0v.093a3.669,3.669,0,0,1,1.268.685,1.126,1.126,0,0,1-1.524,1.66,1.356,1.356,0,0,0-1.2-.167.627.627,0,0,0-.4.5.44.44,0,0,0,.043.347,8.024,8.024,0,0,0,1.935.892A3.165,3.165,0,0,1,31.146,47.328Z" transform="translate(0 -29)" fill="#484545"/>
  </g>
</svg>
