<svg version="1.1" id="Layer_1" xmlns="http://www.w3.org/2000/svg" xmlns:xlink="http://www.w3.org/1999/xlink" x="0px" y="0px"
	 width="100%" viewBox="0 0 600 464" enable-background="new 0 0 600 464" xml:space="preserve">
<path fill="#FFFFFF" opacity="1.000000" stroke="none" 
	d="
M601.000000,268.000000 
	C601.000000,333.606659 601.000000,399.213287 601.000000,465.000000 
	C507.312531,465.000000 413.624908,465.000000 319.431274,464.601135 
	C318.968414,463.871765 318.979553,463.533356 319.059296,463.211945 
	C337.268097,389.788239 355.516785,316.374359 373.592468,242.917908 
	C374.504761,239.210464 374.786194,234.929779 373.910309,231.262558 
	C358.923828,168.517136 343.712219,105.825470 328.540131,43.124393 
	C325.235809,29.468672 321.892853,15.822299 318.456024,1.713355 
	C316.610046,2.922601 315.226929,3.775828 313.898224,4.706714 
	C273.817413,32.787041 233.738281,60.869698 193.666595,88.963036 
	C130.834854,133.012955 68.004021,177.064209 5.213232,221.172455 
	C3.921486,222.079865 3.122168,223.688278 1.819882,224.978745 
	C1.364429,224.991898 1.182215,224.995956 1.000000,225.000000 
	C1.000000,150.365814 1.000000,75.731628 1.000000,1.048719 
	C200.880508,1.048719 400.761017,1.048719 601.000000,1.048719 
	C601.000000,61.353756 601.000000,121.708221 600.531372,182.529083 
	C592.152893,182.995483 584.243042,182.995483 576.160095,182.995483 
	C576.160095,204.371872 576.173157,225.004059 576.150452,245.636185 
	C576.145142,250.462433 576.325073,255.316895 575.881775,260.108612 
	C575.052551,269.071259 570.367798,273.141785 561.442444,272.955322 
	C558.342590,272.890625 555.252319,272.366547 551.812744,272.017273 
	C551.043701,278.940002 550.302429,285.612915 549.547546,292.408936 
	C558.871948,294.816620 567.577942,295.009308 576.336609,293.364380 
	C588.281433,291.121124 595.893555,284.125122 599.199280,272.409271 
	C599.627686,270.891022 600.391541,269.467438 601.000000,268.000000 
M399.221588,282.874573 
	C400.485931,277.720398 401.750275,272.566193 403.036255,267.323792 
	C411.391266,267.323792 419.524506,267.323792 427.810333,267.323792 
	C430.006989,275.877350 432.178101,284.331360 434.318176,292.664581 
	C443.178619,292.664581 451.479156,292.664581 460.355133,292.664581 
	C450.938507,255.909607 441.599823,219.458832 432.323486,183.251434 
	C421.238434,183.251434 410.783905,183.251434 400.333771,183.251434 
	C390.702820,219.763611 381.135193,256.035706 371.490845,292.598755 
	C380.316315,292.598755 388.554779,292.598755 396.981049,292.598755 
	C397.704346,289.506073 398.384094,286.599579 399.221588,282.874573 
M473.469818,225.499771 
	C473.469818,247.885712 473.469818,270.271637 473.469818,292.556152 
	C482.251282,292.556152 490.171661,292.556152 498.647827,292.556152 
	C498.647827,279.565491 498.647827,266.854156 498.647827,254.475616 
	C504.843018,253.945435 510.505371,253.815430 516.044800,252.922562 
	C535.244385,249.827820 546.745178,236.074783 546.836426,216.498123 
	C546.917969,198.999741 536.217224,186.778244 517.752441,183.365616 
	C515.467834,182.943359 513.132385,182.747864 510.810852,182.582275 
	C498.365234,181.694565 486.036591,182.608871 473.469940,184.587631 
	C473.469940,198.227249 473.469940,211.363495 473.469818,225.499771 
z"/>
<path fill="#E40C21" opacity="1.000000" stroke="none" 
	d="
M2.093117,224.969650 
	C3.122168,223.688278 3.921486,222.079865 5.213232,221.172455 
	C68.004021,177.064209 130.834854,133.012955 193.666595,88.963036 
	C233.738281,60.869698 273.817413,32.787041 313.898224,4.706714 
	C315.226929,3.775828 316.610046,2.922601 318.456024,1.713355 
	C321.892853,15.822299 325.235809,29.468672 328.540131,43.124393 
	C343.712219,105.825470 358.923828,168.517136 373.910309,231.262558 
	C374.786194,234.929779 374.504761,239.210464 373.592468,242.917908 
	C355.516785,316.374359 337.268097,389.788239 319.059296,463.211945 
	C318.979553,463.533356 318.968414,463.871765 318.962616,464.601135 
	C318.555542,465.000000 318.111115,465.000000 317.162964,464.711121 
	C234.206436,401.577759 151.763870,338.719788 69.294060,275.897614 
	C46.936028,258.866119 24.495684,241.942688 2.093117,224.969650 
M165.046432,201.548981 
	C158.815445,207.807587 156.232468,215.531952 156.176895,224.176376 
	C156.097610,236.505951 156.130920,248.836487 156.162552,261.166504 
	C156.211105,280.099060 168.950684,292.818634 187.809464,292.846436 
	C216.966736,292.889374 246.123993,292.953339 275.281250,293.005035 
	C280.359894,293.014038 285.438538,293.006317 290.564697,293.006317 
	C290.564697,253.258377 290.564697,214.345901 290.564697,175.301331 
	C280.226013,175.301331 270.168488,175.301331 259.713715,175.301331 
	C259.713715,206.703339 259.713715,237.800034 259.713715,269.196045 
	C257.875031,269.297150 256.417847,269.445770 254.960510,269.447021 
	C236.465393,269.462799 217.970230,269.482117 199.475159,269.445862 
	C191.493164,269.430237 186.957870,265.435883 186.672577,257.331818 
	C186.321121,247.348694 186.336349,237.333771 186.693817,227.350510 
	C186.987793,219.139740 191.641159,215.077805 199.929199,215.022415 
	C209.926117,214.955597 219.923828,215.006409 229.921188,215.006378 
	C236.865387,215.006348 243.809586,215.006378 250.817505,215.006378 
	C250.817505,206.901169 250.817505,199.358597 250.817505,191.849289 
	C228.833176,191.849289 207.201202,191.617996 185.578888,191.973358 
	C177.896118,192.099625 171.143265,195.625900 165.046432,201.548981 
M124.614151,215.002808 
	C132.716553,215.002808 140.818939,215.002808 148.965027,215.002808 
	C148.965027,206.910889 148.965027,199.455795 148.965027,191.386856 
	C138.711823,191.386856 128.643097,191.386856 117.987091,191.386856 
	C117.987091,185.570038 117.987091,180.356506 117.987091,175.287170 
	C107.444389,175.287170 97.515617,175.287170 87.161400,175.287170 
	C87.161400,177.358444 87.161400,179.158875 87.161400,180.959290 
	C87.161400,205.957855 87.125938,230.956512 87.200562,255.954849 
	C87.211441,259.601318 87.433868,263.304443 88.097603,266.881317 
	C90.405296,279.317352 96.857620,289.394836 109.639763,291.570007 
	C122.407684,293.742706 135.653137,293.109192 149.002792,293.720245 
	C149.002792,288.860474 149.002792,285.217712 149.002792,281.574951 
	C149.002792,277.788696 149.002792,274.002411 149.002792,269.829834 
	C142.369034,269.829834 136.238113,269.929779 130.111954,269.802063 
	C123.834015,269.671204 120.207008,266.699036 118.794403,260.608612 
	C118.349190,258.689056 118.202713,256.663330 118.195068,254.685135 
	C118.144501,241.577393 118.168900,228.469345 118.168900,215.002808 
	C120.371811,215.002808 122.010742,215.002808 124.614151,215.002808 
M318.506195,191.469849 
	C313.411469,191.469849 308.316772,191.469849 303.306183,191.469849 
	C303.306183,225.733032 303.306183,259.266632 303.306183,292.798828 
	C314.653320,292.798828 325.689911,292.798828 336.696198,292.798828 
	C336.696198,258.920013 336.696198,225.409073 336.696198,191.470062 
	C330.767731,191.470062 325.135132,191.470062 318.506195,191.469849 
M303.002869,177.661682 
	C303.002869,180.279648 303.002869,182.897614 303.002869,185.712769 
	C314.563568,185.712769 325.618011,185.712769 336.668762,185.712769 
	C336.668762,182.027420 336.668762,178.636337 336.668762,175.006119 
	C326.028809,175.006119 315.716644,174.968185 305.406036,175.079910 
	C304.603333,175.088608 303.812012,176.144943 303.002869,177.661682 
z"/>
<path fill="#FFFFFF" opacity="1.000000" stroke="none" 
	d="
M1.819879,224.978745 
	C24.495684,241.942688 46.936028,258.866119 69.294060,275.897614 
	C151.763870,338.719788 234.206436,401.577759 316.829620,464.711121 
	C211.749573,465.000000 106.499161,465.000000 1.000000,465.000000 
	C1.000000,385.312622 1.000000,305.624969 1.000000,225.468658 
	C1.182215,224.995956 1.364429,224.991898 1.819879,224.978745 
z"/>
<path fill="#251C19" opacity="1.000000" stroke="none" 
	d="
M601.000000,267.531342 
	C600.391541,269.467438 599.627686,270.891022 599.199280,272.409271 
	C595.893555,284.125122 588.281433,291.121124 576.336609,293.364380 
	C567.577942,295.009308 558.871948,294.816620 549.547546,292.408936 
	C550.302429,285.612915 551.043701,278.940002 551.812744,272.017273 
	C555.252319,272.366547 558.342590,272.890625 561.442444,272.955322 
	C570.367798,273.141785 575.052551,269.071259 575.881775,260.108612 
	C576.325073,255.316895 576.145142,250.462433 576.150452,245.636185 
	C576.173157,225.004059 576.160095,204.371872 576.160095,182.995483 
	C584.243042,182.995483 592.152893,182.995483 600.531372,182.997742 
	C601.000000,211.020889 601.000000,239.041794 601.000000,267.531342 
z"/>
<path fill="#261C19" opacity="1.000000" stroke="none" 
	d="
M399.142700,283.283813 
	C398.384094,286.599579 397.704346,289.506073 396.981049,292.598755 
	C388.554779,292.598755 380.316315,292.598755 371.490845,292.598755 
	C381.135193,256.035706 390.702820,219.763611 400.333771,183.251434 
	C410.783905,183.251434 421.238434,183.251434 432.323486,183.251434 
	C441.599823,219.458832 450.938507,255.909607 460.355133,292.664581 
	C451.479156,292.664581 443.178619,292.664581 434.318176,292.664581 
	C432.178101,284.331360 430.006989,275.877350 427.810333,267.323792 
	C419.524506,267.323792 411.391266,267.323792 403.036255,267.323792 
	C401.750275,272.566193 400.485931,277.720398 399.142700,283.283813 
M411.026367,225.487244 
	C409.391937,232.895355 407.757538,240.303467 406.089752,247.862823 
	C412.493683,247.862823 418.544159,247.862823 424.711121,247.862823 
	C421.657562,233.403961 418.673553,219.274551 415.388824,203.721130 
	C413.779816,211.652039 412.461517,218.150009 411.026367,225.487244 
z"/>
<path fill="#281E1B" opacity="1.000000" stroke="none" 
	d="
M473.469879,224.999756 
	C473.469940,211.363495 473.469940,198.227249 473.469940,184.587631 
	C486.036591,182.608871 498.365234,181.694565 510.810852,182.582275 
	C513.132385,182.747864 515.467834,182.943359 517.752441,183.365616 
	C536.217224,186.778244 546.917969,198.999741 546.836426,216.498123 
	C546.745178,236.074783 535.244385,249.827820 516.044800,252.922562 
	C510.505371,253.815430 504.843018,253.945435 498.647827,254.475616 
	C498.647827,266.854156 498.647827,279.565491 498.647827,292.556152 
	C490.171661,292.556152 482.251282,292.556152 473.469818,292.556152 
	C473.469818,270.271637 473.469818,247.885712 473.469879,224.999756 
M499.896820,233.989380 
	C501.558807,234.049347 503.224457,234.212021 504.882141,234.152649 
	C515.733093,233.763916 522.724060,226.320679 521.788452,216.209320 
	C520.830444,205.856369 513.021667,200.302185 501.833710,202.249680 
	C500.601624,202.464157 498.641724,203.984161 498.635651,204.909286 
	C498.572540,214.522308 498.840790,224.137497 499.896820,233.989380 
z"/>
<path fill="#FFFBFB" opacity="1.000000" stroke="none" 
	d="
M165.297501,201.297760 
	C171.143265,195.625900 177.896118,192.099625 185.578888,191.973358 
	C207.201202,191.617996 228.833176,191.849289 250.817505,191.849289 
	C250.817505,199.358597 250.817505,206.901169 250.817505,215.006378 
	C243.809586,215.006378 236.865387,215.006348 229.921188,215.006378 
	C219.923828,215.006409 209.926117,214.955597 199.929199,215.022415 
	C191.641159,215.077805 186.987793,219.139740 186.693817,227.350510 
	C186.336349,237.333771 186.321121,247.348694 186.672577,257.331818 
	C186.957870,265.435883 191.493164,269.430237 199.475159,269.445862 
	C217.970230,269.482117 236.465393,269.462799 254.960510,269.447021 
	C256.417847,269.445770 257.875031,269.297150 259.713715,269.196045 
	C259.713715,237.800034 259.713715,206.703339 259.713715,175.301331 
	C270.168488,175.301331 280.226013,175.301331 290.564697,175.301331 
	C290.564697,214.345901 290.564697,253.258377 290.564697,293.006317 
	C285.438538,293.006317 280.359894,293.014038 275.281250,293.005035 
	C246.123993,292.953339 216.966736,292.889374 187.809464,292.846436 
	C168.950684,292.818634 156.211105,280.099060 156.162552,261.166504 
	C156.130920,248.836487 156.097610,236.505951 156.176895,224.176376 
	C156.232468,215.531952 158.815445,207.807587 165.297501,201.297760 
z"/>
<path fill="#FFFDFD" opacity="1.000000" stroke="none" 
	d="
M124.131912,215.002808 
	C122.010742,215.002808 120.371811,215.002808 118.168900,215.002808 
	C118.168900,228.469345 118.144501,241.577393 118.195068,254.685135 
	C118.202713,256.663330 118.349190,258.689056 118.794403,260.608612 
	C120.207008,266.699036 123.834015,269.671204 130.111954,269.802063 
	C136.238113,269.929779 142.369034,269.829834 149.002792,269.829834 
	C149.002792,274.002411 149.002792,277.788696 149.002792,281.574951 
	C149.002792,285.217712 149.002792,288.860474 149.002792,293.720245 
	C135.653137,293.109192 122.407684,293.742706 109.639763,291.570007 
	C96.857620,289.394836 90.405296,279.317352 88.097603,266.881317 
	C87.433868,263.304443 87.211441,259.601318 87.200562,255.954849 
	C87.125938,230.956512 87.161400,205.957855 87.161400,180.959290 
	C87.161400,179.158875 87.161400,177.358444 87.161400,175.287170 
	C97.515617,175.287170 107.444389,175.287170 117.987091,175.287170 
	C117.987091,180.356506 117.987091,185.570038 117.987091,191.386856 
	C128.643097,191.386856 138.711823,191.386856 148.965027,191.386856 
	C148.965027,199.455795 148.965027,206.910889 148.965027,215.002808 
	C140.818939,215.002808 132.716553,215.002808 124.131912,215.002808 
z"/>
<path fill="#FFFEFE" opacity="1.000000" stroke="none" 
	d="
M319.004395,191.469955 
	C325.135132,191.470062 330.767731,191.470062 336.696198,191.470062 
	C336.696198,225.409073 336.696198,258.920013 336.696198,292.798828 
	C325.689911,292.798828 314.653320,292.798828 303.306183,292.798828 
	C303.306183,259.266632 303.306183,225.733032 303.306183,191.469849 
	C308.316772,191.469849 313.411469,191.469849 319.004395,191.469955 
z"/>
<path fill="#FFFFFF" opacity="1.000000" stroke="none" 
	d="
M303.009125,177.188019 
	C303.812012,176.144943 304.603333,175.088608 305.406036,175.079910 
	C315.716644,174.968185 326.028809,175.006119 336.668762,175.006119 
	C336.668762,178.636337 336.668762,182.027420 336.668762,185.712769 
	C325.618011,185.712769 314.563568,185.712769 303.002869,185.712769 
	C303.002869,182.897614 303.002869,180.279648 303.009125,177.188019 
z"/>
<path fill="#F8F8F8" opacity="1.000000" stroke="none" 
	d="
M411.084778,225.067612 
	C412.461517,218.150009 413.779816,211.652039 415.388824,203.721130 
	C418.673553,219.274551 421.657562,233.403961 424.711121,247.862823 
	C418.544159,247.862823 412.493683,247.862823 406.089752,247.862823 
	C407.757538,240.303467 409.391937,232.895355 411.084778,225.067612 
z"/>
<path fill="#F7F6F6" opacity="1.000000" stroke="none" 
	d="
M499.456940,233.870728 
	C498.840790,224.137497 498.572540,214.522308 498.635651,204.909286 
	C498.641724,203.984161 500.601624,202.464157 501.833710,202.249680 
	C513.021667,200.302185 520.830444,205.856369 521.788452,216.209320 
	C522.724060,226.320679 515.733093,233.763916 504.882141,234.152649 
	C503.224457,234.212021 501.558807,234.049347 499.456940,233.870728 
z"/>
</svg>