<?xml version="1.0" standalone="no"?>
<!DOCTYPE svg PUBLIC "-//W3C//DTD SVG 20010904//EN"
 "http://www.w3.org/TR/2001/REC-SVG-20010904/DTD/svg10.dtd">
<svg version="1.0" xmlns="http://www.w3.org/2000/svg"
 width="3570.000000pt" height="5052.000000pt" viewBox="0 0 3570.000000 5052.000000"
 preserveAspectRatio="xMidYMid meet">
<metadata>
Created by potrace 1.10, written by Peter Selinger 2001-2011
</metadata>
<g transform="translate(0.000000,5052.000000) scale(0.100000,-0.100000)"
fill="#cf1717" stroke="none">
<path d="M6520 46153 c-334 -27 -686 -89 -1010 -176 -180 -49 -253 -71 -265
-78 -5 -4 -25 -10 -43 -14 -18 -4 -45 -13 -60 -21 -15 -8 -35 -14 -44 -14 -9
0 -20 -4 -23 -10 -3 -5 -13 -10 -21 -10 -15 0 -170 -60 -269 -105 -33 -14 -76
-33 -95 -42 -50 -21 -257 -126 -310 -157 -25 -14 -52 -29 -60 -33 -21 -10
-213 -125 -225 -136 -10 -8 -134 -96 -169 -119 -10 -7 -24 -18 -30 -24 -6 -6
-18 -15 -27 -20 -17 -9 -56 -40 -174 -137 -124 -103 -300 -281 -459 -467 -29
-33 -141 -184 -191 -257 -102 -147 -278 -466 -336 -608 -28 -70 -51 -122 -59
-137 -6 -10 -10 -23 -10 -29 0 -6 -6 -25 -14 -42 -29 -65 -116 -340 -116 -367
0 -9 -3 -20 -7 -24 -5 -4 -13 -33 -20 -64 -6 -31 -19 -91 -28 -132 -54 -254
-74 -394 -113 -795 -4 -38 -7 -1136 -7 -2440 l0 -2370 2310 0 c2499 0 2328 -3
2700 50 140 20 359 59 415 75 19 5 82 22 140 36 174 43 202 51 270 73 36 12
94 31 130 42 79 25 269 95 330 121 53 23 107 46 135 58 43 18 313 152 365 181
138 77 301 177 345 211 6 5 78 59 162 121 223 165 371 303 593 553 65 72 169
211 245 326 41 62 79 118 85 125 5 7 10 15 10 19 0 4 14 30 32 58 47 76 169
318 212 421 77 184 80 195 122 325 20 63 40 124 45 135 4 11 12 40 17 65 6 25
19 80 30 122 71 265 124 651 142 1023 11 240 12 4682 1 4689 -5 4 -1021 7
-2258 9 -1656 1 -2286 -1 -2393 -10z m440 -844 c91 -5 199 -14 240 -20 141
-17 215 -29 260 -39 412 -93 647 -176 954 -334 122 -63 279 -153 311 -178 19
-15 130 -93 155 -109 64 -41 303 -241 375 -315 43 -44 202 -212 235 -249 125
-140 335 -443 420 -605 150 -288 226 -473 299 -730 51 -178 65 -241 90 -405
12 -77 27 -169 34 -205 16 -91 16 -650 -1 -755 -7 -44 -17 -111 -22 -150 -14
-99 -52 -295 -69 -355 -52 -183 -76 -264 -90 -295 -5 -11 -19 -49 -32 -85 -12
-36 -26 -69 -31 -74 -4 -6 -8 -15 -8 -22 0 -32 -187 -405 -250 -499 -15 -22
-49 -74 -76 -115 -154 -240 -422 -546 -634 -723 -47 -40 -87 -75 -90 -78 -13
-16 -268 -200 -345 -249 -168 -107 -390 -221 -575 -294 -25 -10 -54 -22 -65
-27 -107 -47 -374 -123 -580 -164 -388 -80 -916 -85 -1300 -15 -158 29 -211
42 -372 86 -123 34 -340 110 -358 126 -5 4 -15 8 -23 8 -17 0 -336 156 -407
199 -27 17 -56 34 -64 38 -20 9 -113 70 -128 83 -7 5 -15 10 -19 10 -3 0 -16
8 -29 18 -12 9 -33 24 -45 32 -12 8 -43 31 -69 50 -25 19 -50 38 -56 42 -64
47 -253 216 -341 303 -225 224 -378 420 -546 700 -65 108 -169 307 -197 376
-8 18 -22 52 -31 74 -28 64 -96 254 -119 330 -12 39 -26 84 -31 100 -23 76
-54 224 -89 425 -13 73 -30 284 -38 465 -9 193 31 580 82 810 9 39 20 90 25
115 9 42 33 124 83 280 11 36 24 69 29 74 4 6 8 16 8 24 0 7 9 34 21 60 11 26
25 58 31 72 26 63 40 92 92 200 31 63 69 138 86 165 16 28 33 57 36 65 27 61
254 385 322 458 12 14 22 28 22 33 0 14 365 377 445 441 183 148 381 286 525
366 114 64 398 202 417 202 4 1 26 9 48 20 22 11 47 19 55 20 9 0 20 4 25 9 6
5 44 18 85 30 41 13 84 27 95 32 11 5 38 13 60 18 22 6 67 17 100 26 194 51
438 89 670 104 189 12 214 12 395 0z"/>
<path d="M6585 42889 c-159 -20 -363 -97 -512 -195 -76 -50 -259 -233 -308
-309 -115 -176 -178 -353 -198 -550 -8 -72 -13 -148 -12 -170 3 -63 25 -217
34 -245 5 -14 20 -59 32 -100 25 -82 87 -209 143 -292 130 -196 388 -387 616
-456 126 -38 146 -42 258 -52 351 -33 697 88 940 329 93 91 136 145 188 231
76 127 114 222 150 370 27 108 26 391 0 510 -11 47 -22 90 -26 95 -4 6 -11 26
-15 45 -4 19 -11 41 -16 50 -4 8 -21 44 -38 80 -78 167 -239 355 -396 462
-243 165 -538 234 -840 197z"/>
<path d="M4777 36828 c-16 -12 -17 -91 -15 -1173 l3 -1160 120 0 120 0 3 83
c3 94 12 102 58 46 35 -43 120 -94 194 -116 99 -30 286 -43 408 -29 186 22
268 55 353 142 58 59 100 133 125 223 21 72 43 308 43 456 1 145 -22 409 -40
460 -44 128 -51 143 -97 207 -22 31 -102 95 -152 121 -14 8 -54 23 -90 35 -57
18 -90 21 -270 21 -176 1 -214 -2 -270 -19 -77 -23 -169 -74 -190 -106 -8 -13
-26 -34 -40 -47 l-25 -24 -3 438 c-2 335 -5 440 -15 446 -20 13 -201 9 -220
-4z m878 -890 c150 -24 212 -84 252 -243 11 -43 16 -141 20 -350 5 -309 -3
-399 -49 -502 -49 -111 -159 -161 -375 -171 -157 -6 -283 23 -359 86 -33 26
-74 108 -97 192 -18 67 -20 106 -21 380 0 267 2 312 18 365 48 159 112 216
271 243 125 22 206 22 340 0z"/>
<path d="M3365 36141 c-234 -27 -349 -121 -384 -317 -14 -78 -14 -127 1 -142
8 -8 49 -12 118 -12 69 0 110 4 118 12 7 7 12 34 12 60 0 106 65 169 204 198
81 17 354 15 436 -3 84 -18 121 -38 159 -84 49 -60 63 -126 69 -320 2 -95 2
-179 -2 -188 -5 -14 -13 -9 -45 23 -49 49 -103 74 -206 96 -67 15 -120 17
-320 13 -155 -2 -256 -8 -285 -17 -169 -48 -245 -118 -292 -268 -18 -56 -21
-93 -22 -222 0 -135 3 -162 22 -212 49 -129 125 -203 252 -247 53 -19 253 -41
365 -40 114 0 283 20 335 40 53 20 122 67 153 105 16 19 33 32 38 29 5 -4 9
-40 9 -81 l0 -75 118 3 117 3 3 620 c3 548 1 628 -14 685 -45 180 -131 268
-314 322 -55 16 -104 20 -320 23 -140 2 -286 0 -325 -4z m452 -865 c182 -22
240 -70 264 -220 9 -63 9 -92 -2 -149 -33 -179 -174 -244 -510 -235 -211 6
-260 18 -320 78 -52 52 -56 68 -66 215 -9 154 29 251 114 288 73 33 339 44
520 23z"/>
<path d="M7010 36141 c-152 -18 -268 -68 -338 -147 -50 -56 -112 -168 -112
-203 0 -11 -5 -32 -11 -48 -16 -42 -38 -282 -39 -418 0 -240 35 -524 70 -559
6 -6 10 -16 10 -23 0 -25 78 -120 127 -155 88 -63 193 -94 360 -108 236 -19
503 -3 608 38 28 11 62 24 77 30 39 16 123 107 149 160 25 52 47 210 35 255
l-7 28 -117 -3 -117 -3 -6 -75 c-10 -121 -52 -186 -137 -210 -122 -35 -458
-38 -586 -6 -148 37 -198 139 -200 411 l-1 150 579 3 c449 2 582 5 588 15 19
30 2 425 -23 517 -39 149 -122 256 -231 300 -114 46 -147 51 -383 55 -126 2
-259 0 -295 -4z m463 -203 c118 -18 181 -86 199 -213 18 -137 27 -237 21 -251
-4 -12 -71 -14 -462 -12 l-456 3 -3 44 c-4 60 27 248 47 286 25 48 73 95 116
114 100 44 352 58 538 29z"/>
<path d="M8760 36141 c-93 -9 -148 -25 -225 -63 -158 -79 -214 -193 -240 -493
-8 -88 -14 -209 -14 -270 0 -148 24 -428 43 -491 51 -179 147 -273 321 -317
137 -35 372 -46 570 -26 294 30 410 109 475 324 42 140 52 258 47 552 -4 277
-10 335 -47 458 -30 97 -46 129 -94 181 -52 58 -122 98 -221 125 -57 16 -112
20 -305 24 -129 2 -269 0 -310 -4z m470 -203 c126 -20 186 -69 222 -182 22
-68 22 -85 23 -441 0 -337 -2 -376 -19 -435 -50 -167 -133 -205 -446 -205
-330 0 -408 42 -452 240 -19 87 -18 705 1 795 23 107 63 167 136 202 88 43
355 56 535 26z"/>
</g>
</svg>
