<?xml version="1.0"?>
<svg xmlns="http://www.w3.org/2000/svg" width="512" height="512" viewBox="0 0 512 512"><g><path d="M256,336a32,32,0,1,0,32,32A32.036,32.036,0,0,0,256,336Zm0,48a16,16,0,1,1,16-16A16.019,16.019,0,0,1,256,384Z"/><circle cx="232" cy="136" r="8"/><circle cx="280" cy="136" r="8"/><path d="M248,184h16a8,8,0,0,0,0-16H248a8,8,0,0,0,0,16Z"/><path d="M16,200H36.687l37.656,37.657A8,8,0,0,0,88,232V200h56a8,8,0,0,0,8-8V96a8,8,0,0,0-8-8H16a8,8,0,0,0-8,8v96A8,8,0,0,0,16,200Zm8-96H136v80H80a8,8,0,0,0-8,8v20.687L45.657,186.343A8,8,0,0,0,40,184H24Z"/><path d="M40,128h80a8,8,0,0,0,0-16H40a8,8,0,0,0,0,16Z"/><path d="M40,152h80a8,8,0,0,0,0-16H40a8,8,0,0,0,0,16Z"/><path d="M72,176a8,8,0,0,0,0-16H40a8,8,0,0,0,0,16Z"/><path d="M104,160H96a8,8,0,0,0,0,16h8a8,8,0,0,0,0-16Z"/><path d="M428.94,303.39a8,8,0,0,0,8.72-1.73L475.31,264H496a8,8,0,0,0,8-8V160a8,8,0,0,0-8-8H352a8,8,0,0,0-8,8v56H296V203.97A60.117,60.117,0,0,0,318.79,168H320a24.032,24.032,0,0,0,24-24V92A84.092,84.092,0,0,0,260,8h-8a84.092,84.092,0,0,0-84,84v52a24.032,24.032,0,0,0,24,24h1.21A60.117,60.117,0,0,0,216,203.97V216H165.04a48.219,48.219,0,0,0-47.79,43.5L89.3,360H76a28.031,28.031,0,0,0-28,28v8a28.031,28.031,0,0,0,28,28H16a8,8,0,0,0-8,8v32a8,8,0,0,0,8,8h8v16a8,8,0,0,0,8,8H480a8,8,0,0,0,8-8V472h8a8,8,0,0,0,8-8V432a8,8,0,0,0-8-8H430.45L395.69,264H424v32A8,8,0,0,0,428.94,303.39ZM328,144a8.011,8.011,0,0,1-8,8V120h8Zm-136,8a8.011,8.011,0,0,1-8-8V120h8Zm-8-48V92a68.071,68.071,0,0,1,68-68h8a68.071,68.071,0,0,1,68,68v12h-8v-4c0-1.53-.06-3.06-.17-4.55a8,8,0,0,0-10.94-6.82C270.77,103.81,200.7,104,200,104Zm24,52V119.88c18.1-.45,62.86-2.58,96-12.63V156a44.052,44.052,0,0,1-44,44h-8A44.052,44.052,0,0,1,208,156Zm72,56.56V224c0,8.96-3.12,24-24,24s-24-15.04-24-24V212.56A59.723,59.723,0,0,0,252,216h8A59.723,59.723,0,0,0,280,212.56ZM64,396v-8a12.01,12.01,0,0,1,12-12h24a12.01,12.01,0,0,1,12,12v8a12.01,12.01,0,0,1-12,12H76A12.01,12.01,0,0,1,64,396Zm408,84H40v-8H472Zm16-40v16H24V440ZM152,424V300a12.01,12.01,0,0,1,12-12H348a12.01,12.01,0,0,1,12,12V424Zm262.08,0H376V300a28.031,28.031,0,0,0-28-28H164a28.031,28.031,0,0,0-28,28V424H100a28.031,28.031,0,0,0,28-28v-8a28.051,28.051,0,0,0-22.26-27.41l27.13-97.52a7.911,7.911,0,0,0,.27-1.53A32.138,32.138,0,0,1,165.04,232H216c.21,0,.41-.02.61-.03C219.71,251.67,234.48,264,256,264s36.29-12.33,39.39-32.03c.2.01.4.03.61.03h48v24a8,8,0,0,0,8,8h27.32ZM360,248V168H488v80H472a8.008,8.008,0,0,0-5.66,2.34L440,276.69V256a8,8,0,0,0-8-8Z"/><path d="M376,192h96a8,8,0,0,0,0-16H376a8,8,0,0,0,0,16Z"/><path d="M376,216h96a8,8,0,0,0,0-16H376a8,8,0,0,0,0,16Z"/><path d="M424,224H376a8,8,0,0,0,0,16h48a8,8,0,0,0,0-16Z"/><path d="M456,224h-8a8,8,0,0,0,0,16h8a8,8,0,0,0,0-16Z"/></g></svg>
