<svg xmlns="http://www.w3.org/2000/svg" width="34.61" height="34.61" viewBox="0 0 34.61 34.61">
  <g id="tax" transform="translate(0)" opacity="0.9">
    <path id="Path_30" data-name="Path 30" d="M28.693,14.76V1.018A1.018,1.018,0,0,0,27.675,0H1.018A1.018,1.018,0,0,0,0,1.018v27.3a1.655,1.655,0,0,0,1.627,1.653,1.66,1.66,0,0,0,1.619-1.653V18.262c0-.014,0-.029,0-.043A3.6,3.6,0,0,1,6.856,14.76ZM18.867,5.133a1.018,1.018,0,1,1,1.572-1.294l1.526,1.854L23.49,3.838a1.018,1.018,0,0,1,1.572,1.294L23.283,7.295l1.779,2.163a1.018,1.018,0,0,1-1.572,1.293L21.965,8.9l-1.526,1.854a1.018,1.018,0,1,1-1.572-1.293l1.779-2.163ZM10.239,6.8a3.33,3.33,0,1,1,6.659,0V10.1a1.018,1.018,0,1,1-2.036,0v-.79H12.275v.79a1.018,1.018,0,1,1-2.036,0Zm-4.4,4.325A1.018,1.018,0,0,1,4.818,10.1V5.5H3.525a1.018,1.018,0,0,1,0-2.036H8.148a1.018,1.018,0,1,1,0,2.036H6.854v4.6A1.017,1.017,0,0,1,5.836,11.122Z" transform="translate(0)" fill="#484545"/>
    <path id="Path_31" data-name="Path 31" d="M74,247.5h-.007a1.571,1.571,0,0,0-1.574,1.49v10.03a3.652,3.652,0,0,1-.395,1.654h3.552v-11.6A1.578,1.578,0,0,0,74,247.5Z" transform="translate(-67.133 -230.704)" fill="#484545"/>
    <path id="Path_32" data-name="Path 32" d="M183.468,82.384a1.294,1.294,0,1,0-2.588,0v.481h2.588Z" transform="translate(-168.605 -75.587)" fill="#484545"/>
    <path id="Path_33" data-name="Path 33" d="M171.941,247.5H149.02a3.592,3.592,0,0,1,.362,1.577V264.3a1.018,1.018,0,0,0,1.018,1.018h22.1a1.018,1.018,0,0,0,1.018-1.018V249.077A1.578,1.578,0,0,0,171.941,247.5ZM153.6,252.717h7.888a1.018,1.018,0,1,1,0,2.036H153.6a1.018,1.018,0,0,1,0-2.036Zm7.938,7.531c-.049,0,.431,0-7.938,0a1.018,1.018,0,0,1,0-2.036h7.888a1.018,1.018,0,0,1,.05,2.035Zm8.527,0H166.2a1.018,1.018,0,0,1,0-2.036h3.868a1.018,1.018,0,0,1,0,2.036Zm0-5.5H166.2a1.018,1.018,0,0,1,0-2.036h3.868a1.018,1.018,0,0,1,0,2.036Z" transform="translate(-138.907 -230.704)" fill="#484545"/>
  </g>
</svg>
