<svg id="phone-line" xmlns="http://www.w3.org/2000/svg" width="15" height="15" viewBox="0 0 15 15">
  <path id="Path_132" data-name="Path 132" d="M0,0H15V15H0Z" fill="none"/>
  <path id="Path_133" data-name="Path 133" d="M6.932,7.745a6.52,6.52,0,0,0,2.441,2.441l.546-.765a.618.618,0,0,1,.8-.183,7.055,7.055,0,0,0,2.831.842.618.618,0,0,1,.569.616v2.756a.618.618,0,0,1-.555.615A9.579,9.579,0,0,1,3.051,3.555.618.618,0,0,1,3.665,3H6.421a.618.618,0,0,1,.616.569A7.055,7.055,0,0,0,7.879,6.4a.618.618,0,0,1-.183.8l-.765.546ZM5.374,7.339,6.548,6.5A8.283,8.283,0,0,1,5.87,4.235H4.241c0,.1-.006.206-.006.309a8.337,8.337,0,0,0,8.338,8.338c.1,0,.206,0,.309-.006V11.247a8.283,8.283,0,0,1-2.266-.678l-.838,1.174A7.685,7.685,0,0,1,8.8,11.28l-.036-.02a7.755,7.755,0,0,1-2.9-2.9l-.02-.036a7.685,7.685,0,0,1-.463-.981Z" transform="translate(-1.059 -1.059)" fill="#1a1616"/>
</svg>
