<svg height="480pt" viewBox="0 0 480 480" width="480pt" xmlns="http://www.w3.org/2000/svg"><path d="m32 40h192v16h-192zm0 0"/><path d="m32 72h96v16h-96zm0 0"/><path d="m144 72h80v16h-80zm0 0"/><path d="m32 104h192v16h-192zm0 0"/><path d="m32 136h192v16h-192zm0 0"/><path d="m32 168h96v16h-96zm0 0"/><path d="m144 168h80v16h-80zm0 0"/><path d="m480 136h-112v-19.3125l-116.6875-116.6875h-227.3125c-13.253906 0-24 10.746094-24 24v424c0 17.671875 14.328125 32 32 32h304c14.546875-.054688 27.226562-9.914062 30.863281-24h113.136719zm-224-108.6875 84.6875 84.6875h-76.6875c-4.417969 0-8-3.582031-8-8zm80 436.6875h-304c-8.835938 0-16-7.164062-16-16v-424c0-4.417969 3.582031-8 8-8h216v88c0 13.253906 10.746094 24 24 24h88v8h-112v320h109.777344c-2.835938 4.933594-8.085938 7.984375-13.777344 8zm128-24h-208v-288h208zm0 0"/><path d="m448 168h-176v64h176zm-16 48h-144v-32h144zm0 0"/><path d="m320 248h-48v48h48zm-16 32h-16v-16h16zm0 0"/><path d="m336 296h48v-48h-48zm16-32h16v16h-16zm0 0"/><path d="m400 296h48v-48h-48zm16-32h16v16h-16zm0 0"/><path d="m320 312h-48v48h48zm-16 32h-16v-16h16zm0 0"/><path d="m336 360h48v-48h-48zm16-32h16v16h-16zm0 0"/><path d="m400 424h48v-112h-48zm16-96h16v80h-16zm0 0"/><path d="m320 376h-48v48h48zm-16 32h-16v-16h16zm0 0"/><path d="m336 424h48v-48h-48zm16-32h16v16h-16zm0 0"/><path d="m152 288h16c0-15.457031-13.769531-28.375-32-31.351562v-8.648438h-16v8.648438c-18.230469 2.976562-32 15.894531-32 31.351562s13.769531 28.375 32 31.351562v31.632813c-9.199219-2.265625-16-8.175781-16-14.984375h-16c0 15.457031 13.769531 28.375 32 31.351562v8.648438h16v-8.648438c18.230469-2.976562 32-15.894531 32-31.351562s-13.769531-28.375-32-31.351562v-31.632813c9.199219 2.265625 16 8.175781 16 14.984375zm-48 0c0-6.808594 6.800781-12.71875 16-14.984375v29.96875c-9.199219-2.265625-16-8.175781-16-14.984375zm48 48c0 6.808594-6.800781 12.71875-16 14.984375v-29.96875c9.199219 2.265625 16 8.175781 16 14.984375zm0 0"/><path d="m128 224c-48.601562 0-88 39.398438-88 88s39.398438 88 88 88 88-39.398438 88-88c-.058594-48.578125-39.421875-87.941406-88-88zm0 160c-39.765625 0-72-32.234375-72-72s32.234375-72 72-72 72 32.234375 72 72c-.042969 39.746094-32.253906 71.957031-72 72zm0 0"/></svg>