<svg xmlns="http://www.w3.org/2000/svg" width="28.208" height="35.149" viewBox="0 0 28.208 35.149">
  <g id="Group_109" data-name="Group 109" transform="translate(-7.256 -3.477)">
    <path id="Path_7" data-name="Path 7" d="M30.438,20H5.763a1.763,1.763,0,1,0,0,3.525H30.438a1.763,1.763,0,1,0,0-3.525Z" transform="translate(3.263 15.102)" fill="#484545"/>
    <path id="Path_8" data-name="Path 8" d="M5.766,30.157h.159l7.35-.67a3.525,3.525,0,0,0,2.133-1L31.27,12.619a3.384,3.384,0,0,0-.123-4.777L26.317,3.013a3.525,3.525,0,0,0-4.688-.123L5.766,18.753a3.525,3.525,0,0,0-1,2.133L4,28.236a1.758,1.758,0,0,0,1.763,1.921Zm18.1-24.676,4.812,4.812L25.154,13.73,20.43,9.006Z" transform="translate(3.26 1.42)" fill="#484545"/>
  </g>
</svg>
