<svg xmlns="http://www.w3.org/2000/svg" width="30.765" height="30.765" viewBox="0 0 30.765 30.765">
  <path id="return" d="M27.24,0H3.525A3.528,3.528,0,0,0,0,3.525V27.24a3.528,3.528,0,0,0,3.525,3.525H27.24a3.528,3.528,0,0,0,3.525-3.525V3.525A3.528,3.528,0,0,0,27.24,0ZM24.355,18.267a1.282,1.282,0,0,1-1.282,1.282H14.1v3.846a1.283,1.283,0,0,1-.791,1.184,1.266,1.266,0,0,1-.491.1,1.282,1.282,0,0,1-.906-.376L6.785,19.173a1.28,1.28,0,0,1,0-1.813l5.127-5.127a1.282,1.282,0,0,1,2.188.906v3.846h7.691V7.371a1.282,1.282,0,0,1,2.564,0Z" fill="#484545" opacity="0.9"/>
</svg>
