<svg xmlns="http://www.w3.org/2000/svg" width="40" height="44.444" viewBox="0 0 40 44.444">
  <g id="surface1" transform="translate(-3 -2)">
    <path id="Path_97" data-name="Path 97" d="M31.889,2a16.4,16.4,0,0,0-7.283,1.536c-2.005,1.007-3.828,2.7-3.828,5.13v7.951a16.661,16.661,0,0,0-6.667-1.285A16.34,16.34,0,0,0,6.837,16.87C4.823,17.877,3,19.569,3,22V39.778c0,2.431,1.823,4.123,3.837,5.13a16.341,16.341,0,0,0,7.274,1.536,16.405,16.405,0,0,0,7.283-1.536,6.437,6.437,0,0,0,3.733-4.227A16.806,16.806,0,0,0,31.889,42a16.4,16.4,0,0,0,7.283-1.536c2.005-1.007,3.828-2.7,3.828-5.13V8.667c0-2.431-1.823-4.123-3.828-5.13A16.4,16.4,0,0,0,31.889,2ZM25.222,14.049a16.661,16.661,0,0,0,6.667,1.285,16.661,16.661,0,0,0,6.667-1.285v3.507c0,.026-.174.556-1.38,1.155a12.48,12.48,0,0,1-5.286,1.068A12.481,12.481,0,0,1,26.6,18.71c-1.207-.6-1.38-1.128-1.38-1.155Zm0,8.889a16.661,16.661,0,0,0,6.667,1.285,16.661,16.661,0,0,0,6.667-1.285v3.507c0,.026-.174.556-1.38,1.154a12.477,12.477,0,0,1-5.286,1.068A12.478,12.478,0,0,1,26.6,27.6c-1.207-.6-1.38-1.128-1.38-1.154ZM7.444,27.382a16.661,16.661,0,0,0,6.667,1.285,16.661,16.661,0,0,0,6.667-1.285v3.507c0,.026-.174.556-1.38,1.154a12.477,12.477,0,0,1-5.286,1.068,12.551,12.551,0,0,1-5.3-1.068c-1.2-.6-1.372-1.128-1.372-1.154Zm17.778,4.444a16.661,16.661,0,0,0,6.667,1.285,16.661,16.661,0,0,0,6.667-1.285v3.507c0,.026-.174.556-1.38,1.154a12.477,12.477,0,0,1-5.286,1.068A12.478,12.478,0,0,1,26.6,36.488c-1.207-.6-1.38-1.128-1.38-1.154Zm-4.444,4.444v3.507c0,.026-.174.556-1.38,1.154A12.477,12.477,0,0,1,14.111,42a12.551,12.551,0,0,1-5.3-1.068c-1.2-.6-1.372-1.128-1.372-1.154V36.271a16.661,16.661,0,0,0,6.667,1.285A16.812,16.812,0,0,0,20.778,36.271Z" transform="translate(0 0)" fill="#595656"/>
  </g>
</svg>
