<svg xmlns="http://www.w3.org/2000/svg" width="40" height="40" viewBox="0 0 40 40">
  <g id="surface1" transform="translate(-1.974 -2.961)">
    <path id="Path_96" data-name="Path 96" d="M19.572,2.961a3.184,3.184,0,0,0-2.261.937L2.909,18.3a3.2,3.2,0,0,0,0,4.522l2.5,2.5a6.27,6.27,0,0,1,1.64-2.888l14.4-14.4a6.362,6.362,0,0,1,4.528-1.875h8.708a6.357,6.357,0,0,0-5.51-3.2Zm6.4,6.4a3.189,3.189,0,0,0-2.261.937L9.312,24.7a3.2,3.2,0,0,0,0,4.528l12.8,12.8a3.2,3.2,0,0,0,4.522,0l14.4-14.4a3.184,3.184,0,0,0,.937-2.261v-9.6a6.4,6.4,0,0,0-6.4-6.4Zm9.6,3.2a3.2,3.2,0,1,1-3.2,3.2A3.2,3.2,0,0,1,35.577,12.562Z" fill="#595656"/>
  </g>
</svg>
