<svg xmlns="http://www.w3.org/2000/svg" width="38.456" height="38.531" viewBox="0 0 38.456 38.531">
  <g id="settings_2_" data-name="settings (2)" opacity="0.9">
    <circle id="Ellipse_3" data-name="Ellipse 3" cx="1.129" cy="1.129" r="1.129" transform="translate(22.652 18.137)" fill="#484545"/>
    <circle id="Ellipse_4" data-name="Ellipse 4" cx="1.129" cy="1.129" r="1.129" transform="translate(13.621 24.91)" fill="#484545"/>
    <circle id="Ellipse_5" data-name="Ellipse 5" cx="1.129" cy="1.129" r="1.129" transform="translate(13.621 11.364)" fill="#484545"/>
    <path id="Path_51" data-name="Path 51" d="M36.3,15.678a16.975,16.975,0,0,0-2.3-5.568L35.636,8l-4.6-4.6L28.921,5.038a16.973,16.973,0,0,0-5.568-2.3L23.02,0H16.511l-.333,2.734a16.975,16.975,0,0,0-5.568,2.3L8.5,3.4,3.9,8,5.538,10.11a16.973,16.973,0,0,0-2.3,5.568L.5,16.011V22.52l2.734.333a16.975,16.975,0,0,0,2.3,5.568L3.9,30.534l4.6,4.6,2.113-1.643a16.973,16.973,0,0,0,5.568,2.3l.333,2.734H23.02l.333-2.734a16.975,16.975,0,0,0,5.568-2.3l2.113,1.643,4.6-4.6-1.643-2.113a16.973,16.973,0,0,0,2.3-5.568l2.659-.333V16.011ZM29.925,27.167h-11.5a3.366,3.366,0,0,1-6.357,0H9.606V24.91h2.466a3.366,3.366,0,0,1,6.357,0h11.5Zm0-6.773H27.46a3.366,3.366,0,0,1-6.357,0H9.606V18.137H21.1a3.366,3.366,0,0,1,6.357,0h2.466Zm0-6.773h-11.5a3.366,3.366,0,0,1-6.357,0H9.606V11.364h2.466a3.366,3.366,0,0,1,6.357,0h11.5Z" transform="translate(-0.5)" fill="#484545"/>
  </g>
</svg>
