<svg xmlns="http://www.w3.org/2000/svg" width="35.256" height="32.047" viewBox="0 0 35.256 32.047">
  <path id="Path_26" data-name="Path 26" d="M34.649,30.842v3.2H2.6v-3.2H4.2V20.013a7.214,7.214,0,0,1-2.19-9.686L6.36,2.8A1.6,1.6,0,0,1,7.747,2H29.505a1.6,1.6,0,0,1,1.388.8l4.33,7.5a7.2,7.2,0,0,1-2.176,9.71V30.842ZM8.674,5.2l-3.9,6.751a4.006,4.006,0,0,0,7.156,3.551,1.6,1.6,0,0,1,2.974,0,4.006,4.006,0,0,0,7.441,0,1.6,1.6,0,0,1,2.974,0,4.006,4.006,0,1,0,7.142-3.576L28.576,5.2H8.675Z" transform="translate(-1 -2)" fill="#484545"/>
</svg>
