<svg height="480pt" viewBox="-24 0 480 480" width="480pt" xmlns="http://www.w3.org/2000/svg"><path d="m408 0h-384c-13.253906 0-24 10.746094-24 24v432c0 13.253906 10.746094 24 24 24h384c13.253906 0 24-10.746094 24-24v-432c0-13.253906-10.746094-24-24-24zm8 456c0 4.417969-3.582031 8-8 8h-384c-4.417969 0-8-3.582031-8-8v-432c0-4.417969 3.582031-8 8-8h384c4.417969 0 8 3.582031 8 8zm0 0"/><path d="m152 32h-112c-4.417969 0-8 3.582031-8 8v400c0 4.417969 3.582031 8 8 8h112c4.417969 0 8-3.582031 8-8v-400c0-4.417969-3.582031-8-8-8zm-8 400h-96v-384h96zm0 0"/><path d="m72 136h48c4.417969 0 8-3.582031 8-8v-48c0-4.417969-3.582031-8-8-8h-48c-4.417969 0-8 3.582031-8 8v48c0 4.417969 3.582031 8 8 8zm8-48h32v32h-32zm0 0"/><path d="m64 152h64v16h-64zm0 0"/><path d="m72 256h48c4.417969 0 8-3.582031 8-8v-48c0-4.417969-3.582031-8-8-8h-48c-4.417969 0-8 3.582031-8 8v48c0 4.417969 3.582031 8 8 8zm8-48h32v32h-32zm0 0"/><path d="m64 272h64v16h-64zm0 0"/><path d="m72 376h48c4.417969 0 8-3.582031 8-8v-48c0-4.417969-3.582031-8-8-8h-48c-4.417969 0-8 3.582031-8 8v48c0 4.417969 3.582031 8 8 8zm8-48h32v32h-32zm0 0"/><path d="m64 392h64v16h-64zm0 0"/><path d="m232 64h16v16h-16zm0 0"/><path d="m232 400h16v16h-16zm0 0"/><path d="m392 72h-64v16h56v304h-56v16h64c4.417969 0 8-3.582031 8-8v-320c0-4.417969-3.582031-8-8-8zm0 0"/><path d="m328 272c4.417969 0 8-3.582031 8-8h24c4.417969 0 8-3.582031 8-8v-32c0-4.417969-3.582031-8-8-8h-24c0-4.417969-3.582031-8-8-8h-25.472656c-3.378906-9.554688-12.394532-15.957031-22.527344-16v-120c0-22.089844-17.910156-40-40-40s-40 17.910156-40 40v120h-8c-8.835938 0-16 7.164062-16 16v64c0 8.835938 7.164062 16 16 16h8v120c0 22.089844 17.910156 40 40 40s40-17.910156 40-40v-120c10.132812-.042969 19.148438-6.445312 22.527344-16zm24-40v16h-16v-16zm-32 24h-16v-32h16zm-104-184c0-13.253906 10.746094-24 24-24s24 10.746094 24 24v120h-16v-96h-16v96h-16zm48 336c0 13.253906-10.746094 24-24 24s-24-10.746094-24-24v-120h16v96h16v-96h16zm16-136h-88v-64h88c4.417969 0 8 3.582031 8 8v48c0 4.417969-3.582031 8-8 8zm0 0"/></svg>