<?xml version="1.0"?>
<svg xmlns="http://www.w3.org/2000/svg" viewBox="0 0 64 64" width="512" height="512"><g id="Market_online" data-name="Market online"><path d="M21,56H15V34H27v1a1,1,0,0,0,2,0V33a1,1,0,0,0-1-1H14a1,1,0,0,0-1,1V56H9V27.9a4.994,4.994,0,0,0,3-1.93,4.954,4.954,0,0,0,8,0,4.954,4.954,0,0,0,8,0,4.954,4.954,0,0,0,8,0,4.954,4.954,0,0,0,8,0,4.954,4.954,0,0,0,8,0,4.994,4.994,0,0,0,3,1.93V35a1,1,0,0,0,2,0V27.9A5.009,5.009,0,0,0,61,23V17a1,1,0,0,0-.181-.573l-7-10A1,1,0,0,0,53,6H46V5a3,3,0,0,0-3-3H21a3,3,0,0,0-3,3V6H11a1,1,0,0,0-.819.427l-7,10A1,1,0,0,0,3,17v6a5.009,5.009,0,0,0,4,4.9V57a1,1,0,0,0,1,1H21a1,1,0,0,0,0-2ZM16,26a3,3,0,0,1-3-3V22h6v1A3,3,0,0,1,16,26ZM5,17.742,59,18v2H5ZM24,26a3,3,0,0,1-3-3V22h6v1A3,3,0,0,1,24,26Zm8,0a3,3,0,0,1-3-3V22h6v1A3,3,0,0,1,32,26Zm8,0a3,3,0,0,1-3-3V22h6v1A3,3,0,0,1,40,26Zm8,0a3,3,0,0,1-3-3V22h6v1A3,3,0,0,1,48,26Zm11-3a3,3,0,0,1-6,0V22h6ZM20,5a1,1,0,0,1,1-1H43a1,1,0,0,1,1,1v5H20V5ZM11.521,8H18v3a1,1,0,0,0,1,1H45a1,1,0,0,0,1-1V8h6.479l5.594,7.991L6.1,15.747ZM5,23V22h6v1a3,3,0,0,1-6,0Z"/><path d="M61,38H25a1,1,0,0,0-1,1V61a1,1,0,0,0,1,1H61a1,1,0,0,0,1-1V39A1,1,0,0,0,61,38ZM60,60H26V40H60Z"/><path d="M29,55a2,2,0,0,1,2,2,1,1,0,0,0,1,1H54a1,1,0,0,0,1-1,2,2,0,0,1,2-2,1,1,0,0,0,1-1V46a1,1,0,0,0-1-1,2,2,0,0,1-2-2,1,1,0,0,0-1-1H32a1,1,0,0,0-1,1,2,2,0,0,1-2,2,1,1,0,0,0-1,1v8A1,1,0,0,0,29,55Zm1-8.126A4.015,4.015,0,0,0,32.873,44H53.127A4.015,4.015,0,0,0,56,46.874v6.252A4.015,4.015,0,0,0,53.127,56H32.873A4.015,4.015,0,0,0,30,53.126Z"/><path d="M50,51h2a1,1,0,0,0,0-2H50a1,1,0,0,0,0,2Z"/><path d="M34,51h2a1,1,0,0,0,0-2H34a1,1,0,0,0,0,2Z"/><path d="M43,54a4,4,0,1,0-4-4A4,4,0,0,0,43,54Zm0-6a2,2,0,1,1-2,2A2,2,0,0,1,43,48Z"/><path d="M17,44a1,1,0,0,0,0,2h1a1,1,0,0,0,0-2Z"/><path d="M34,34a1,1,0,0,0,0,2H50a1,1,0,0,0,0-2Z"/></g></svg>
