<svg xmlns="http://www.w3.org/2000/svg" xmlns:xlink="http://www.w3.org/1999/xlink" width="25" height="25" viewBox="0 0 25 25">
  <defs>
    <clipPath id="clip-path">
      <rect id="Rectangle_102" data-name="Rectangle 102" width="25" height="25" transform="translate(44 353)" fill="#595757"/>
    </clipPath>
  </defs>
  <g id="Mask_Group_3" data-name="Mask Group 3" transform="translate(-44 -353)" clip-path="url(#clip-path)">
    <g id="list" transform="translate(41.115 350.115)">
      <path id="Path_95" data-name="Path 95" d="M25,2.885H5.769A2.885,2.885,0,0,0,2.885,5.769V25a2.885,2.885,0,0,0,2.885,2.885H25A2.885,2.885,0,0,0,27.885,25V5.769A2.885,2.885,0,0,0,25,2.885ZM7.692,13.462H9.615a.962.962,0,0,1,.962.962v1.923a.962.962,0,0,1-.962.962H7.692a.962.962,0,0,1-.962-.962V14.423A.962.962,0,0,1,7.692,13.462Zm-.962-2.885V8.654a.962.962,0,0,1,.962-.962H9.615a.962.962,0,0,1,.962.962v1.923a.962.962,0,0,1-.962.962H7.692A.962.962,0,0,1,6.731,10.577Zm.962,8.654H9.615a.962.962,0,0,1,.962.962v1.923a.962.962,0,0,1-.962.962H7.692a.962.962,0,0,1-.962-.962V20.192A.962.962,0,0,1,7.692,19.231Zm5.769.962h9.615a.962.962,0,0,1,0,1.923H13.462a.962.962,0,1,1,0-1.923ZM12.5,15.385a.962.962,0,0,1,.962-.962h9.615a.962.962,0,1,1,0,1.923H13.462A.962.962,0,0,1,12.5,15.385Zm10.577-4.808H13.462a.962.962,0,1,1,0-1.923h9.615a.962.962,0,0,1,0,1.923Z" fill="#595757"/>
    </g>
  </g>
</svg>
