<?xml version="1.0" encoding="utf-8"?>
<!-- Svg Vector Icons : http://www.onlinewebfonts.com/icon -->
<!DOCTYPE svg PUBLIC "-//W3C//DTD SVG 1.1//EN" "http://www.w3.org/Graphics/SVG/1.1/DTD/svg11.dtd">
<svg version="1.1" xmlns="http://www.w3.org/2000/svg" xmlns:xlink="http://www.w3.org/1999/xlink" x="0px" y="0px" viewBox="0 0 1000 1000" enable-background="new 0 0 1000 1000" xml:space="preserve">
<metadata> Svg Vector Icons : http://www.onlinewebfonts.com/icon </metadata>
<g><g><path d="M204.1,392.2c19.7,0,39-3.1,57.7-9l110.8,110.7l121.3-121.3L383.1,261.8c21.3-66.7,3.8-140.6-45.9-190.3C301.8,36,254.6,16.5,204.6,16.5c-28,0-56,6.3-81.2,18.3c-3.8,1.8-6.5,5.3-7.2,9.5c-0.7,4.1,0.6,8.3,3.6,11.3l116.5,116.6c8.6,8.6,13.3,20,13.3,32.1c0,12.1-4.8,23.5-13.3,32.1c-17.1,17.2-47.1,17.2-64.2,0L55.6,119.9c-3-3-7.3-4.3-11.3-3.6c-4.1,0.7-7.7,3.4-9.5,7.2C0.6,195.2,15.3,281.1,71.4,337.2C106.9,372.7,154,392.2,204.1,392.2z"/><path d="M796,607.8c-19.7,0-39.1,3.1-57.8,9.1L615.7,494.3L494.3,615.7l122.6,122.6c-21.3,66.7-3.8,140.6,45.9,190.3c35.4,35.4,82.6,54.9,132.6,54.9c28,0,56-6.4,81.2-18.3c3.8-1.8,6.5-5.3,7.2-9.5s-0.6-8.3-3.6-11.3L763.6,827.7c-8.6-8.6-13.3-20-13.3-32.1c0-12.1,4.7-23.5,13.4-32.1c17.2-17.2,47-17.2,64.2,0l116.6,116.5c3,3,7.1,4.3,11.3,3.6c4.1-0.7,7.7-3.4,9.5-7.2c34.2-71.7,19.6-157.7-36.6-213.8C893.2,627.3,846.1,607.8,796,607.8z"/><path d="M746.1,331.5c0,0,20.3,17.8,37,9.5c18.9-9.5,72.1,43,89.1,55.3c0.1,0,0.2,0,0.4,0.1l-9.3,9.3c-12.3,12.1-12.3,31.9,0,44.1c12.2,12.2,31.9,12.2,44.1,0l73.5-73.4c12.1-12.2,12.2-32,0-44.2c-12.1-12.1-31.9-12.1-44.1,0l-12.2,12.2c-10.1-14-27-37.8-24.9-45.7c9-34.5-61.5-116.2-61.5-116.2C663.3,7.7,546.5,11.6,490.9,30.8c-22.3,7.7-18.2,12.5,5,16.6c168.6,29.4,189.5,128.9,161,167.2c-11,14.8,5,32.7,5,32.7l6,6L383.2,538c3.9,2.3,7.6,5,10.9,8.3l47.9,47.9c3.3,3.3,5.9,7,8.2,10.8l284.7-284.7L746.1,331.5z"/><path d="M374.9,565.4c-10.5-10.5-28.4-11.2-39.6-1.4L18.9,847.7C7.6,857.4,7,874,17.5,884.5l86.2,86.1c10.5,10.5,27.1,9.9,36.8-1.3l283.8-316.5c9.7-11.2,9.1-29.1-1.4-39.6L374.9,565.4z"/></g></g>
</svg>