<svg id="_x31_px" enable-background="new 0 0 24 24" height="512" viewBox="0 0 24 24" width="512" xmlns="http://www.w3.org/2000/svg"><path d="m21.5 22h-19c-1.379 0-2.5-1.122-2.5-2.5v-6c0-1.378 1.121-2.5 2.5-2.5h4c.276 0 .5.224.5.5s-.224.5-.5.5h-4c-.827 0-1.5.673-1.5 1.5v6c0 .827.673 1.5 1.5 1.5h19c.827 0 1.5-.673 1.5-1.5v-6c0-.827-.673-1.5-1.5-1.5h-4c-.276 0-.5-.224-.5-.5s.224-.5.5-.5h4c1.379 0 2.5 1.122 2.5 2.5v6c0 1.378-1.121 2.5-2.5 2.5z"/><path d="m6.5 19c-.276 0-.5-.224-.5-.5s.224-.5.5-.5c1.654 0 3-1.346 3-3v-6.5h-3c-.202 0-.385-.122-.462-.309s-.034-.401.108-.545l5.5-5.5c.195-.195.512-.195.707 0l5.5 5.5c.143.143.186.358.108.545s-.259.309-.461.309h-3v2.5c0 4.41-3.587 7.998-7.997 8-.001 0-.002 0-.003 0zm1.207-11.5h2.293c.276 0 .5.224.5.5v7c0 .78-.225 1.508-.611 2.124 2.151-1.195 3.611-3.493 3.611-6.124v-3c0-.276.224-.5.5-.5h2.293l-4.293-4.293z"/></svg>