<svg id="Capa_1" enable-background="new 0 0 512 512" height="512" viewBox="0 0 512 512" width="512" xmlns="http://www.w3.org/2000/svg"><g><g><path d="m421.67 0h-270.48c-4.143 0-7.5 3.357-7.5 7.5s3.357 7.5 7.5 7.5h270.48c7.003 0 12.7 5.697 12.7 12.7v69.28h-356.74v-69.28c0-7.003 5.697-12.7 12.7-12.7h25.86c4.143 0 7.5-3.357 7.5-7.5s-3.357-7.5-7.5-7.5h-25.86c-15.274 0-27.7 12.426-27.7 27.7v384.67c0 4.143 3.357 7.5 7.5 7.5s7.5-3.357 7.5-7.5v-300.39h356.74v45.14c0 4.143 3.357 7.5 7.5 7.5s7.5-3.357 7.5-7.5v-129.42c0-15.274-12.426-27.7-27.7-27.7z"/><path d="m441.87 184.62c-4.143 0-7.5 3.357-7.5 7.5v292.18c0 7.003-5.697 12.7-12.7 12.7h-331.34c-7.003 0-12.7-5.697-12.7-12.7v-36.93c0-4.143-3.357-7.5-7.5-7.5s-7.5 3.357-7.5 7.5v36.93c0 15.274 12.426 27.7 27.7 27.7h331.34c15.274 0 27.7-12.426 27.7-27.7v-292.18c0-4.142-3.357-7.5-7.5-7.5z"/><path d="m417.045 55.988c0-13.048-10.615-23.663-23.663-23.663-13.047 0-23.662 10.615-23.662 23.663 0 13.047 10.615 23.662 23.662 23.662 13.048 0 23.663-10.615 23.663-23.662zm-32.325 0c0-4.776 3.886-8.663 8.662-8.663s8.663 3.887 8.663 8.663-3.887 8.662-8.663 8.662-8.662-3.885-8.662-8.662z"/><path d="m352.395 55.988c0-13.048-10.615-23.663-23.663-23.663-13.047 0-23.662 10.615-23.662 23.663 0 13.047 10.615 23.662 23.662 23.662s23.663-10.615 23.663-23.662zm-32.326 0c0-4.776 3.886-8.663 8.662-8.663s8.663 3.887 8.663 8.663-3.887 8.662-8.663 8.662-8.662-3.885-8.662-8.662z"/><path d="m402.474 149.504h-123.24c-4.143 0-7.5 3.357-7.5 7.5s3.357 7.5 7.5 7.5h123.24c4.143 0 7.5-3.357 7.5-7.5s-3.358-7.5-7.5-7.5z"/><path d="m216.604 164.504h30.305c4.143 0 7.5-3.357 7.5-7.5s-3.357-7.5-7.5-7.5h-30.305c-4.143 0-7.5 3.357-7.5 7.5s3.357 7.5 7.5 7.5z"/><path d="m216.604 196.829h116.169c4.143 0 7.5-3.357 7.5-7.5s-3.357-7.5-7.5-7.5h-116.169c-4.143 0-7.5 3.357-7.5 7.5s3.357 7.5 7.5 7.5z"/><path d="m387.321 196.829c4.143 0 7.5-3.357 7.5-7.5s-3.357-7.5-7.5-7.5h-22.224c-4.143 0-7.5 3.357-7.5 7.5s3.357 7.5 7.5 7.5z"/><path d="m216.604 229.154h80.813c4.143 0 7.5-3.357 7.5-7.5s-3.357-7.5-7.5-7.5h-80.813c-4.143 0-7.5 3.357-7.5 7.5s3.357 7.5 7.5 7.5z"/><path d="m129.729 229.154h24.244c15.275 0 27.703-12.428 27.703-27.703v-24.244c0-15.275-12.428-27.703-27.703-27.703h-24.244c-15.275 0-27.703 12.428-27.703 27.703v24.244c0 15.276 12.428 27.703 27.703 27.703zm-12.703-51.947c0-7.005 5.698-12.703 12.703-12.703h24.244c7.005 0 12.703 5.698 12.703 12.703v24.244c0 7.005-5.698 12.703-12.703 12.703h-24.244c-7.005 0-12.703-5.698-12.703-12.703z"/><path d="m402.474 264.663h-123.24c-4.143 0-7.5 3.357-7.5 7.5s3.357 7.5 7.5 7.5h123.24c4.143 0 7.5-3.357 7.5-7.5s-3.358-7.5-7.5-7.5z"/><path d="m216.604 279.663h30.305c4.143 0 7.5-3.357 7.5-7.5s-3.357-7.5-7.5-7.5h-30.305c-4.143 0-7.5 3.357-7.5 7.5s3.357 7.5 7.5 7.5z"/><path d="m216.604 311.988h116.169c4.143 0 7.5-3.357 7.5-7.5s-3.357-7.5-7.5-7.5h-116.169c-4.143 0-7.5 3.357-7.5 7.5s3.357 7.5 7.5 7.5z"/><path d="m387.321 311.988c4.143 0 7.5-3.357 7.5-7.5s-3.357-7.5-7.5-7.5h-22.224c-4.143 0-7.5 3.357-7.5 7.5s3.357 7.5 7.5 7.5z"/><path d="m216.604 344.313h80.813c4.143 0 7.5-3.357 7.5-7.5s-3.357-7.5-7.5-7.5h-80.813c-4.143 0-7.5 3.357-7.5 7.5s3.357 7.5 7.5 7.5z"/><path d="m102.026 316.609c0 15.276 12.428 27.704 27.703 27.704h24.244c15.275 0 27.703-12.428 27.703-27.704v-24.243c0-15.275-12.428-27.703-27.703-27.703h-24.244c-15.275 0-27.703 12.428-27.703 27.703zm15-24.243c0-7.005 5.698-12.703 12.703-12.703h24.244c7.005 0 12.703 5.698 12.703 12.703v24.243c0 7.005-5.698 12.704-12.703 12.704h-24.244c-7.005 0-12.703-5.699-12.703-12.704z"/><path d="m409.974 387.321c0-4.143-3.357-7.5-7.5-7.5h-123.24c-4.143 0-7.5 3.357-7.5 7.5s3.357 7.5 7.5 7.5h123.24c4.142 0 7.5-3.357 7.5-7.5z"/><path d="m216.604 394.821h30.305c4.143 0 7.5-3.357 7.5-7.5s-3.357-7.5-7.5-7.5h-30.305c-4.143 0-7.5 3.357-7.5 7.5s3.357 7.5 7.5 7.5z"/><path d="m216.604 427.146h116.169c4.143 0 7.5-3.357 7.5-7.5s-3.357-7.5-7.5-7.5h-116.169c-4.143 0-7.5 3.357-7.5 7.5s3.357 7.5 7.5 7.5z"/><path d="m365.098 412.146c-4.143 0-7.5 3.357-7.5 7.5s3.357 7.5 7.5 7.5h22.224c4.143 0 7.5-3.357 7.5-7.5s-3.357-7.5-7.5-7.5z"/><path d="m216.604 459.472h80.813c4.143 0 7.5-3.357 7.5-7.5s-3.357-7.5-7.5-7.5h-80.813c-4.143 0-7.5 3.357-7.5 7.5s3.357 7.5 7.5 7.5z"/><path d="m102.026 431.769c0 15.275 12.428 27.703 27.703 27.703h24.244c15.275 0 27.703-12.428 27.703-27.703v-24.244c0-15.275-12.428-27.703-27.703-27.703h-24.244c-15.275 0-27.703 12.428-27.703 27.703zm15-24.245c0-7.005 5.698-12.703 12.703-12.703h24.244c7.005 0 12.703 5.698 12.703 12.703v24.244c0 7.005-5.698 12.703-12.703 12.703h-24.244c-7.005 0-12.703-5.698-12.703-12.703z"/></g></g></svg>