<svg xmlns="http://www.w3.org/2000/svg" width="24.694" height="25" viewBox="0 0 24.694 25">
  <path id="setting" d="M-1990.041,24.58l-.625-1.731a10.935,10.935,0,0,1-2.988-1.719c-1.787.337-2.168.532-2.45.038l-2.8-4.838c-.3-.506.094-.762,1.25-2.106a10.822,10.822,0,0,1,0-3.45c-1.206-1.419-1.525-1.619-1.25-2.106l2.8-4.838c.288-.507.688-.294,2.45.037a10.932,10.932,0,0,1,2.988-1.718c.569-1.725.612-2.15,1.193-2.15h5.587c.607,0,.65.581,1.193,2.15a10.933,10.933,0,0,1,2.988,1.718c1.824-.338,2.168-.531,2.45-.037l2.8,4.838c.275.506-.106.762-1.193,2.106a10.865,10.865,0,0,1,0,3.45c1.206,1.418,1.525,1.618,1.249,2.106l-2.8,4.838c-.287.506-.687.293-2.45-.038a10.931,10.931,0,0,1-2.987,1.719c-.569,1.724-.613,2.15-1.193,2.15h-5.622A.626.626,0,0,1-1990.041,24.58Zm-2.806-17.361a8.085,8.085,0,0,0,.119,10.693,8.125,8.125,0,0,0,8.692,2.26,8.125,8.125,0,0,0,5.464-7.129h.018a8.149,8.149,0,0,0-8.187-8.666A8.073,8.073,0,0,0-1992.848,7.219Zm3.668,11.68V16.825a5,5,0,0,1-2.487-4.526,5,5,0,0,1,2.843-4.311.624.624,0,0,1,.6.035.625.625,0,0,1,.292.527v3.612l1.25.838,1.25-.838V8.55a.627.627,0,0,1,.292-.527.624.624,0,0,1,.6-.035,5,5,0,0,1,2.843,4.311,5,5,0,0,1-2.487,4.526V18.9a6.833,6.833,0,0,1-2.5.474A6.833,6.833,0,0,1-1989.179,18.9Z" transform="translate(1999)" fill="#fff"/>
</svg>
